<?xml version="1.0" standalone="no"?>
<!DOCTYPE svg PUBLIC "-//W3C//DTD SVG 1.1//EN" "http://www.w3.org/Graphics/SVG/1.1/DTD/svg11.dtd" >
<svg xmlns="http://www.w3.org/2000/svg" xmlns:xlink="http://www.w3.org/1999/xlink" version="1.1">
<metadata>
Created by FontForge 20200314 at Sun Oct 18 23:25:01 2015
 By Unknown
Copyright (c) ParaType, Inc., 2007. All rights reserved.
</metadata>
<defs>
<font id="Parangon330CW00-Regular" horiz-adv-x="560" >
  <font-face 
    font-family="Parangon330CW00-Regular"
    font-weight="400"
    font-stretch="normal"
    units-per-em="1000"
    panose-1="2 11 5 3 3 5 2 2 2 4"
    ascent="800"
    descent="-200"
    x-height="500"
    cap-height="700"
    bbox="-20 -288 1419 875"
    underline-thickness="50"
    underline-position="-125"
    unicode-range="U+0020-FB02"
  />
<missing-glyph horiz-adv-x="233" 
 />
    <glyph glyph-name="uniFB01" unicode="fi" horiz-adv-x="502" 
d="M284 500v-70h-126v-430h-88v497q0 102 46 152q24 26 57 38.5t95 12.5h164v-98h-88v28h-81h-16q-27 0 -42 -7.5t-26 -20.5q-21 -25 -21 -73v-29h126zM432 0h-88v500h88v-500z" />
    <glyph glyph-name="uniFB02" unicode="fl" horiz-adv-x="502" 
d="M284 500v-70h-126v-430h-88v490q0 60 11.5 96.5t32.5 60.5q23 26 56.5 39.5t92.5 13.5h5h164v-700h-88v630h-81h-16q-27 0 -42 -7.5t-26 -20.5q-21 -25 -21 -73v-29h126z" />
    <glyph glyph-name=".notdef" horiz-adv-x="233" 
 />
    <glyph glyph-name=".null" horiz-adv-x="0" 
 />
    <glyph glyph-name="nonmarkingreturn" horiz-adv-x="333" 
 />
    <glyph glyph-name="space" unicode=" " horiz-adv-x="233" 
 />
    <glyph glyph-name="exclam" unicode="!" horiz-adv-x="258" 
d="M80 700h98l-13 -510h-72zM81 100h96v-100h-96v100z" />
    <glyph glyph-name="quotedbl" unicode="&#x22;" horiz-adv-x="412" 
d="M70 700h86v-105l-23 -125h-40l-23 125v105zM256 700h86v-105l-23 -125h-40l-23 125v105z" />
    <glyph glyph-name="numbersign" unicode="#" horiz-adv-x="696" 
d="M123 494h111l40 206h65l-39 -206h147l40 206h68l-40 -206h111l-13 -67h-111l-27 -139h111l-13 -67h-111l-43 -221h-68l45 221h-147l-42 -221h-69l43 221h-111l13 67h111l27 139h-111zM288 427l-26 -139h147l26 139h-147z" />
    <glyph glyph-name="dollar" unicode="$" horiz-adv-x="656" 
d="M70 228h92q0 -38 14.5 -72.5t40.5 -55.5q16 -13 41.5 -22.5t48.5 -11.5v264l-6 2q-12 4 -46.5 13.5t-57.5 20.5t-45 28q-62 50 -62 129q0 87 69 138q30 22 69 33.5t79 10.5v83h42v-83q30 0 68 -11t75 -40q80 -63 80 -177h-88q1 40 -15 75.5t-41 55.5q-35 28 -79 30v-243
q33 -6 79 -20.5t72 -30.5q28 -17 49 -44t29 -56.5t8 -53.5q0 -43 -22 -84.5t-65 -69.5q-31 -20 -71 -30.5t-79 -10.5v-82h-42v82q-41 1 -79 15t-65 35q-37 29 -63.5 78t-29.5 105zM307 407v231q-23 0 -46.5 -7t-41.5 -20q-41 -30 -43 -81q-2 -56 44 -88q29 -20 87 -35z
M349 319v-253q51 0 94 28q53 35 53 93q0 66 -57 100q-26 17 -90 32z" />
    <glyph glyph-name="percent" unicode="%" horiz-adv-x="1039" 
d="M713 700h90l-478 -700h-90zM607 200q0 87 43 142q22 29 57 47.5t81 18.5q34 0 71.5 -14.5t66.5 -51.5q43 -55 43 -142q0 -88 -43 -143q-22 -29 -57 -47.5t-81 -18.5q-34 0 -71.5 14.5t-66.5 51.5q-43 55 -43 143zM683 200q0 -24 5.5 -51t16.5 -44q29 -48 83 -48t83 48
q11 17 16.5 44t5.5 51t-5.5 51t-16.5 44q-14 24 -36.5 36.5t-46.5 12.5t-46.5 -12.5t-36.5 -36.5q-11 -17 -16.5 -44t-5.5 -51zM70 501q0 87 43 142q22 29 57 47.5t81 18.5q34 0 71.5 -14.5t66.5 -51.5q43 -55 43 -142q0 -88 -43 -143q-22 -29 -57 -47.5t-81 -18.5
q-34 0 -71.5 14.5t-66.5 51.5q-43 55 -43 143zM146 501q0 -24 5.5 -51t16.5 -44q29 -48 83 -48t83 48q11 17 16.5 44t5.5 51t-5.5 51t-16.5 44q-14 24 -36.5 36.5t-46.5 12.5t-46.5 -12.5t-36.5 -36.5q-11 -17 -16.5 -44t-5.5 -51z" />
    <glyph glyph-name="ampersand" unicode="&#x26;" horiz-adv-x="571" 
d="M592 55l-55 -55l-263 334l-59 -59q-28 -28 -44.5 -55.5t-16.5 -61.5q0 -46 32 -75t82 -28q77 2 129 69l45 -56q-66 -83 -179 -84q-63 0 -105.5 23.5t-65.5 64t-22 88.5q1 41 19 77t72 88l62 60l-47 47q-62 62 -62 134q0 22 7.5 46.5t26.5 47.5t50.5 39.5t75.5 16.5
q28 0 58 -9.5t53 -29.5t36 -48.5t13 -62.5q-1 -73 -63 -135l-47 -47zM274 434l44 47q14 15 25.5 38.5t12.5 43.5q2 25 -9.5 47t-32 31.5t-40.5 9.5q-38 0 -60.5 -24t-21.5 -62q2 -44 39 -84z" />
    <glyph glyph-name="quotesingle" unicode="'" horiz-adv-x="226" 
d="M70 700h86v-105l-23 -125h-40l-23 125v105z" />
    <glyph glyph-name="parenleft" unicode="(" horiz-adv-x="398" 
d="M328 805v-78q-29 -27 -57.5 -63t-46.5 -69q-28 -54 -43 -125.5t-15 -143.5q0 -73 15 -144.5t43 -124.5q16 -30 44 -66t60 -68v-78q-97 58 -161 151q-32 47 -55.5 106.5t-32.5 118t-9 104.5q0 94 26 179.5t70 149.5q62 91 162 151z" />
    <glyph glyph-name="parenright" unicode=")" horiz-adv-x="398" 
d="M70 805q100 -60 162 -151q44 -64 70 -149.5t26 -179.5q0 -46 -9 -104.5t-32.5 -118t-55.5 -106.5q-64 -93 -161 -151v78q22 22 52.5 58.5t51.5 75.5q28 53 43 124.5t15 144.5q0 72 -15 143.5t-43 125.5q-18 33 -46.5 69t-57.5 63v78z" />
    <glyph glyph-name="asterisk" unicode="*" horiz-adv-x="455" 
d="M197 700h60v-112l109 37l19 -59l-106 -37l69 -92l-52 -37l-70 93l53 36l-22 59h-60l-20 -57l49 -38l-67 -94l-53 38l71 94l-107 36l20 60l107 -39v112z" />
    <glyph glyph-name="plus" unicode="+" horiz-adv-x="660" 
d="M70 338h223v222h74v-222h223v-68h-223v-230h-74v230h-223v68z" />
    <glyph glyph-name="comma" unicode="," horiz-adv-x="249" 
d="M83 100h96v-84q0 -50 -13 -92q-12 -38 -36 -74h-60q27 38 42 77q14 36 14 73h-43v100z" />
    <glyph glyph-name="hyphen" unicode="-" horiz-adv-x="420" 
d="M70 307h280v-73h-280v73z" />
    <glyph glyph-name="period" unicode="." horiz-adv-x="236" 
d="M70 100h96v-100h-96v100z" />
    <glyph glyph-name="slash" unicode="/" horiz-adv-x="404" 
d="M320 750h84l-318 -900h-86z" />
    <glyph glyph-name="zero" unicode="0" horiz-adv-x="580" 
d="M50 345q0 147 42 233q32 63 83.5 95.5t114.5 32.5t114.5 -32.5t83.5 -95.5q42 -86 42 -233t-42 -233q-32 -63 -83.5 -95.5t-114.5 -32.5t-114.5 32.5t-83.5 95.5q-42 86 -42 233zM139 347q0 -130 25 -191q10 -25 28.5 -48t44 -33.5t53.5 -10.5t53.5 10.5t44 33.5t28.5 48
q25 63 25 189q0 132 -25 193q-10 25 -28.5 48t-44 33.5t-53.5 10.5t-53.5 -10.5t-44 -33.5t-28.5 -48q-25 -61 -25 -191z" />
    <glyph glyph-name="one" unicode="1" horiz-adv-x="570" 
d="M85 543l290 165v-708h-88v575l-202 -116v84z" />
    <glyph glyph-name="two" unicode="2" horiz-adv-x="580" 
d="M159 458h-90v19q0 55 18 97t45 69q62 63 166 63q91 0 149 -49q61 -52 63 -142q1 -79 -46 -137q-33 -41 -134 -111q-13 -9 -48 -33t-57.5 -41.5t-38.5 -35.5q-14 -16 -23.5 -34.5t-6.5 -44.5h359v-78h-450v33q0 61 9.5 93t30.5 60q10 13 32 35t118 89q97 67 125 98
q42 45 42 104q0 53 -34 86q-35 34 -93 34q-60 0 -95 -36q-18 -19 -29.5 -49t-11.5 -66v-23z" />
    <glyph glyph-name="three" unicode="3" horiz-adv-x="580" 
d="M60 474q1 35 11.5 72t31.5 66t44 47q60 47 146 47q90 0 149 -44q70 -51 70 -140q0 -70 -45 -115q-13 -13 -30.5 -24t-41.5 -17q53 -13 92 -56q43 -49 43 -123q0 -25 -7.5 -53.5t-23 -52t-33.5 -39.5q-28 -25 -73 -41.5t-103 -16.5q-103 0 -168 61q-33 32 -52 78.5
t-20 96.5h90q1 -76 44 -119q40 -40 108 -40q65 0 105 33q43 36 43 97q0 26 -10 54.5t-35 49.5q-36 30 -107 30h-65v74h66q64 0 98 30q16 14 27 38.5t12 49.5q1 56 -40 87q-35 28 -94 28q-56 0 -95 -31q-22 -18 -36.5 -51.5t-14.5 -75.5h-86z" />
    <glyph glyph-name="four" unicode="4" horiz-adv-x="580" 
d="M356 690h100l-308 -410v-24h244v124h88v-380h-88v181h-322v122z" />
    <glyph glyph-name="five" unicode="5" horiz-adv-x="580" 
d="M103 690h384v-74h-318l-14 -228q13 17 34 33.5t50 25.5t59 10q42 1 83.5 -15.5t71.5 -46.5q29 -30 45.5 -75t16.5 -94q0 -52 -18 -99t-47 -78q-63 -65 -167 -65q-102 0 -161 68q-24 27 -39 65t-18 78h88q2 -22 10 -49t21 -43q16 -21 42.5 -33.5t58.5 -12.5
q33 0 61.5 13.5t45.5 36.5q33 43 33 120q0 73 -36 116q-39 45 -100 45q-33 0 -63 -14.5t-49 -42.5h-96z" />
    <glyph glyph-name="six" unicode="6" horiz-adv-x="590" 
d="M426 629q-41 0 -85 -12.5t-78 -35.5q-28 -20 -52 -51.5t-39 -68.5q-19 -51 -20 -103q26 42 68.5 64t91.5 22q44 0 85 -17t69 -46q29 -29 46.5 -72.5t17.5 -92.5q0 -55 -21 -99.5t-53 -73.5q-66 -59 -159 -59q-50 0 -90.5 17t-68.5 46q-56 56 -72 157q-6 39 -6 82
q0 69 15 134q29 121 114 195q28 25 68.5 46.5t85.5 31.5t83 10v-74zM440 214q0 68 -34 109q-18 21 -46.5 34.5t-62.5 13.5q-33 0 -61 -13t-47 -35q-36 -42 -36 -109q0 -64 35 -109q39 -51 109 -51q38 0 66 15t44 36q33 41 33 109z" />
    <glyph glyph-name="seven" unicode="7" horiz-adv-x="580" 
d="M70 690h430v-81q-71 -96 -115.5 -196t-67 -202t-25.5 -211h-93q18 342 216 616h-345v74z" />
    <glyph glyph-name="eight" unicode="8" horiz-adv-x="579" 
d="M140 191q0 -65 45 -103q41 -34 105 -34t105 34q45 38 45 103t-45 103q-41 34 -105 34t-105 -34q-45 -38 -45 -103zM530 191q1 -97 -72 -155q-65 -52 -168 -52t-168 52q-73 58 -72 155q0 29 12.5 64t45.5 66t79 45q-40 12 -69 40.5t-39 62t-9 61.5q1 34 17 69.5t52 62.5
q58 44 151 44t151 -44q36 -27 52 -62.5t17 -69.5q1 -28 -9 -61.5t-39 -62t-69 -40.5q46 -14 79 -45t45.5 -66t12.5 -64zM155 516q0 -22 9 -47.5t31 -43.5q17 -14 44 -22t51 -8q27 0 52 8.5t41 21.5q42 35 42 91q0 22 -9 47.5t-31 43.5q-17 14 -44 22t-51 8t-51 -8t-44 -22
t-28.5 -38t-11.5 -53z" />
    <glyph glyph-name="nine" unicode="9" horiz-adv-x="590" 
d="M164 58q41 0 85 12.5t78 35.5q28 20 52 51.5t39 68.5q20 53 20 105q-26 -42 -68.5 -64t-91.5 -22q-44 0 -84.5 17t-69.5 46q-27 27 -45.5 68.5t-18.5 94.5q0 46 17.5 91.5t56.5 81.5q66 59 159 59q50 0 90.5 -17t68.5 -46q57 -58 72 -157q6 -34 6 -81q0 -60 -15 -135
q-29 -122 -112 -195q-44 -39 -106.5 -63t-132.5 -25v74zM150 474q0 -67 35 -108q17 -20 44.5 -34t63.5 -14q67 0 108 48q16 19 26 44t10 64q0 65 -35 108q-42 51 -109 51q-68 0 -109 -51q-34 -43 -34 -108z" />
    <glyph glyph-name="colon" unicode=":" horiz-adv-x="236" 
d="M70 500h96v-100h-96v100zM70 100h96v-100h-96v100z" />
    <glyph glyph-name="semicolon" unicode=";" horiz-adv-x="249" 
d="M83 500h96v-100h-96v100zM83 100h96v-84q0 -50 -13 -92q-12 -38 -36 -74h-60q27 38 42 77q14 36 14 73h-43v100z" />
    <glyph glyph-name="semicolon" unicode="&#x37e;" horiz-adv-x="249" 
d="M83 500h96v-100h-96v100zM83 100h96v-84q0 -50 -13 -92q-12 -38 -36 -74h-60q27 38 42 77q14 36 14 73h-43v100z" />
    <glyph glyph-name="less" unicode="&#x3c;" 
d="M70 358l420 202v-70l-356 -175v-22l356 -183v-70l-420 210v108z" />
    <glyph glyph-name="equal" unicode="=" horiz-adv-x="660" 
d="M70 224h520v-67h-520v67zM70 443h520v-67h-520v67z" />
    <glyph glyph-name="greater" unicode="&#x3e;" 
d="M70 560l420 -202v-108l-420 -210v70l356 183v22l-356 175v70z" />
    <glyph glyph-name="question" unicode="?" horiz-adv-x="500" 
d="M40 500q1 39 13 76t32 63q59 78 170 77q86 -1 140 -45q25 -20 44.5 -55t20.5 -84q0 -68 -46 -125q-16 -20 -51.5 -53t-45.5 -44q-13 -15 -23.5 -32.5t-13 -33.5t-2.5 -40v-14h-88v14q0 78 43 131q13 17 52 52t46 43q38 45 38 101q0 55 -33 86q-12 11 -33 20t-49 9
q-62 0 -97 -47q-14 -19 -21 -47.5t-6 -51.5h-90zM186 100h96v-100h-96v100z" />
    <glyph glyph-name="at" unicode="@" horiz-adv-x="973" 
d="M673 554v-264q0 -55 15.5 -79t46.5 -24h4q43 2 75 57t32 143q0 61 -18.5 113.5t-51 91t-74 65.5t-96 44.5t-115.5 17.5q-74 0 -142 -28.5t-119 -79.5t-80 -119t-29 -143q0 -74 29 -142t80 -119t119 -80t142 -29q40 0 85.5 10.5t85 32t66.5 44.5l33 -42q-30 -25 -74 -48.5
t-95.5 -35.5t-97.5 -12h-5q-105 1 -201.5 53t-157 149.5t-60.5 213.5v5q1 86 34 163t91 134.5t134.5 90t161.5 33.5h6q116 0 215.5 -56.5t148.5 -149.5q46 -86 46 -180q0 -51 -15 -98t-41 -82t-60 -54.5t-70 -20.5h-3q-29 0 -55.5 12.5t-40.5 32t-19 38.5q-20 -38 -57 -60
t-82 -23h-3q-32 0 -68 13.5t-67 47.5q-22 24 -37 64t-15 93q0 96 52 156q24 27 58.5 44t76.5 17h3q41 -1 77.5 -20t58.5 -57v67h73zM602 348q0 29 -7 58.5t-19 48.5q-16 24 -43 38.5t-57 14.5t-57 -14.5t-43 -38.5q-12 -19 -19 -48.5t-7 -58.5q0 -28 7 -58.5t19 -49.5
q18 -28 45 -40t55 -12t55 12t45 40q12 19 19 49.5t7 58.5z" />
    <glyph glyph-name="A" unicode="A" horiz-adv-x="670" 
d="M268 700h134l248 -700h-96l-72 213h-294l-72 -213h-96zM326 632l-114 -347h246l-114 347h-18z" />
    <glyph glyph-name="B" unicode="B" horiz-adv-x="630" 
d="M75 700h240q76 0 111.5 -8t62.5 -25q76 -46 76 -139q0 -44 -17.5 -79t-43.5 -53t-49 -25q58 -19 89.5 -67t30.5 -109q0 -47 -19.5 -89t-58.5 -68q-28 -19 -67.5 -28.5t-114.5 -9.5h-240v700zM165 334v-261h150q50 0 73.5 4.5t41.5 15.5q52 33 52 111q0 76 -52 110
q-14 9 -29 13.5t-30 6t-34 1t-22 -0.5h-150zM165 630v-226h150q37 0 64.5 3t49.5 17q46 29 46 95q0 65 -43 93q-11 7 -30.5 12.5t-86.5 5.5h-150z" />
    <glyph glyph-name="C" unicode="C" horiz-adv-x="710" 
d="M561 248h94q-5 -50 -25.5 -96t-50.5 -80q-81 -89 -211 -88q-71 1 -133 29.5t-109 92.5q-71 97 -71 244t71 244q48 65 111.5 93.5t130.5 28.5q31 0 69.5 -8t74.5 -28.5t62 -47.5q29 -30 50.5 -75t25.5 -101h-93q-3 74 -48 125q-22 26 -57.5 43t-82.5 17q-42 0 -78.5 -16
t-59.5 -38t-35 -41q-47 -75 -47 -195q0 -53 11.5 -105.5t35.5 -89.5q26 -41 71.5 -67.5t101.5 -26.5q42 0 78 15.5t61 41.5q27 29 39.5 63t13.5 66z" />
    <glyph glyph-name="D" unicode="D" horiz-adv-x="670" 
d="M75 700h170q109 0 168 -20.5t103 -63.5q44 -42 71.5 -111.5t27.5 -154.5t-27.5 -154.5t-71.5 -111.5q-44 -43 -103 -63.5t-168 -20.5h-170v700zM165 628v-553h88q80 0 124.5 16.5t75.5 48.5q68 69 68 212q0 78 -19.5 129.5t-48.5 81.5q-31 32 -75.5 48.5t-124.5 16.5h-88
z" />
    <glyph glyph-name="E" unicode="E" horiz-adv-x="590" 
d="M75 700h452v-76h-362v-221h344v-76h-344v-248h370v-79h-460v700z" />
    <glyph glyph-name="F" unicode="F" horiz-adv-x="565" 
d="M75 700h440v-76h-350v-230h327v-77h-327v-317h-90v700z" />
    <glyph glyph-name="G" unicode="G" horiz-adv-x="720" 
d="M319 384h346v-36q0 -150 -59 -241q-25 -38 -57 -63t-60.5 -37t-59 -17.5t-64.5 -5.5q-153 2 -240 122q-70 97 -70 244q0 146 70 244q87 120 237 122q36 0 77 -8.5t75.5 -29t58.5 -44.5q70 -73 79 -174h-92q-4 68 -47 117q-57 65 -149 64q-34 0 -67 -11t-58.5 -32.5
t-41.5 -46.5q-48 -72 -48 -200q0 -124 48 -198q26 -41 68 -65.5t99 -25.5q53 -1 96 20.5t72 61.5q43 60 43 153v11h-256v76z" />
    <glyph glyph-name="H" unicode="H" horiz-adv-x="680" 
d="M75 700h90v-293h350v293h90v-700h-90v329h-350v-329h-90v700z" />
    <glyph glyph-name="I" unicode="I" horiz-adv-x="262" 
d="M85 700h92v-700h-92v700z" />
    <glyph glyph-name="J" unicode="J" horiz-adv-x="320" 
d="M165 700h90v-482q0 -74 -15.5 -117t-45.5 -70q-53 -47 -159 -47h-35v78h35q73 0 104 38q26 33 26 118v482z" />
    <glyph glyph-name="K" unicode="K" horiz-adv-x="615" 
d="M75 700h90v-294h124l202 294h102l-229 -328l231 -372h-106l-200 334h-124v-334h-90v700z" />
    <glyph glyph-name="L" unicode="L" horiz-adv-x="475" 
d="M75 700h90v-622h310v-78h-400v700z" />
    <glyph glyph-name="M" unicode="M" horiz-adv-x="990" 
d="M65 0v403q0 73 3.5 106.5t15 64.5t30.5 55q29 38 77 60.5t104 22.5q47 0 90 -19t70 -49.5t40 -59.5q13 29 40 59.5t70 49.5t90 19q56 0 104 -22.5t77 -60.5q19 -24 29.5 -52t15 -60t4.5 -114v-403h-92v414q0 57 -4.5 92.5t-17.5 59.5q-19 36 -51 52t-67 16
q-24 0 -50.5 -8t-47 -25.5t-31.5 -37.5q-9 -16 -17 -43.5t-8 -105.5v-414h-88v414q0 65 -6 95.5t-19 53.5q-11 20 -31.5 37.5t-47 25.5t-50.5 8q-35 0 -67 -16t-51 -52q-10 -18 -16 -49.5t-6 -102.5v-414h-92z" />
    <glyph glyph-name="N" unicode="N" horiz-adv-x="650" 
d="M65 0v394q0 78 7.5 118t22 68.5t31.5 48.5q33 39 84.5 62t114.5 23q62 0 114.5 -23.5t85.5 -61.5q17 -19 30 -45t21.5 -63.5t8.5 -126.5v-394h-92v400q0 87 -10.5 119t-21.5 49q-25 37 -62 53t-74 16q-26 0 -54.5 -9t-49 -26t-31.5 -34t-22 -49t-11 -120v-399h-92z" />
    <glyph glyph-name="O" unicode="O" horiz-adv-x="720" 
d="M55 350q0 84 22 149.5t58 109.5q26 31 62.5 57t79 38t83.5 12t83.5 -12t79 -38t62.5 -57q36 -44 58 -109.5t22 -149.5t-22 -149.5t-58 -109.5q-26 -31 -62.5 -57t-79 -38t-83.5 -12t-83.5 12t-79 38t-62.5 57q-36 44 -58 109.5t-22 149.5zM149 352q0 -127 49 -200
q28 -42 71.5 -66t90.5 -24t90.5 24t71.5 66q49 73 49 200q0 126 -49 199q-28 42 -71.5 66t-90.5 24t-90.5 -24t-71.5 -66q-49 -73 -49 -199z" />
    <glyph glyph-name="P" unicode="P" horiz-adv-x="610" 
d="M80 700h202q82 0 123.5 -11t72.5 -34q82 -59 82 -174t-82 -174q-31 -23 -72.5 -34t-123.5 -11h-112v-262h-90v700zM170 628v-292h118q91 0 129 29q50 36 50 117t-50 117q-38 29 -129 29h-118z" />
    <glyph glyph-name="Q" unicode="Q" horiz-adv-x="729" 
d="M55 350q0 84 22 149.5t58 109.5q26 31 62.5 57t79 38t83.5 12t83.5 -12t79.5 -38t62 -57q35 -44 57.5 -110t22.5 -149q0 -68 -16 -130t-47 -104l77 -70l-53 -62l-77 72q-35 -35 -86.5 -53.5t-102.5 -18.5q-41 0 -83.5 12t-79.5 38t-62 57q-36 44 -58 109.5t-22 149.5z
M149 352q0 -127 49 -200q28 -42 71.5 -66t90.5 -24t90.5 24t71.5 66q49 73 49 200q0 126 -49 199q-28 42 -71.5 66t-90.5 24t-90.5 -24t-71.5 -66q-49 -73 -49 -199z" />
    <glyph glyph-name="R" unicode="R" horiz-adv-x="625" 
d="M75 700h215q80 0 119.5 -9t67.5 -27q39 -25 60.5 -66.5t21.5 -94.5q0 -80 -50 -131q-34 -35 -78 -45q19 -7 34 -23t29 -48l111 -256h-102l-95 229q-7 18 -18 34.5t-29 25.5q-19 9 -73 9h-123v-298h-90v700zM165 626v-256h138q53 0 76.5 5t40.5 17q47 31 47 106t-47 106
q-11 8 -32 15t-85 7h-138z" />
    <glyph glyph-name="S" unicode="S" horiz-adv-x="640" 
d="M55 224h94q0 -82 52 -125q48 -39 127 -39q72 0 113 30q19 13 34 38t16 61q0 64 -54 96q-26 16 -139 46q-59 16 -97 29.5t-68 38.5q-58 49 -58 128q0 89 70 141q66 49 173 48q106 0 176 -56q20 -16 40 -43t31.5 -63.5t13.5 -73.5h-90q-4 96 -60 134q-23 16 -55.5 22.5
t-59.5 6.5q-26 0 -58 -7.5t-51 -22.5q-17 -14 -28 -36.5t-10 -49.5q1 -51 44 -82q13 -9 31.5 -16t98.5 -28q74 -19 106.5 -32.5t53.5 -26.5q85 -55 84 -157q-1 -49 -22.5 -89.5t-62.5 -67.5q-67 -44 -172 -44q-115 0 -185 55q-39 32 -63.5 82t-24.5 103z" />
    <glyph glyph-name="T" unicode="T" 
d="M20 700h520v-76h-216v-624h-90v624h-214v76z" />
    <glyph glyph-name="U" unicode="U" horiz-adv-x="650" 
d="M65 700h92v-396q0 -73 8 -108.5t25 -60.5q11 -17 31.5 -34t49 -26t54.5 -9q37 0 74 16t62 53q11 17 21.5 49t10.5 119v397h92v-394q0 -98 -11.5 -139t-24.5 -62t-24 -34q-33 -38 -85.5 -61.5t-114.5 -23.5q-63 0 -114.5 23t-84.5 62q-17 20 -31.5 48.5t-22 68.5t-7.5 118
v394z" />
    <glyph glyph-name="V" unicode="V" horiz-adv-x="640" 
d="M20 700h96l196 -631h16l196 631h96l-229 -700h-142z" />
    <glyph glyph-name="W" unicode="W" horiz-adv-x="990" 
d="M65 700h92v-411q0 -57 4.5 -92.5t17.5 -59.5q19 -36 51 -52t67 -16q24 0 50.5 8t47 25.5t31.5 37.5q9 16 17 43.5t8 105.5v411h88v-411q0 -65 6 -95.5t19 -53.5q11 -20 31.5 -37.5t47 -25.5t50.5 -8q35 0 67 16t51 52q10 18 16 49.5t6 102.5v411h92v-403
q0 -73 -3.5 -106.5t-15 -64.5t-30.5 -55q-29 -38 -77 -60.5t-104 -22.5q-47 0 -90 19t-70 49.5t-40 59.5q-13 -29 -40 -59.5t-70 -49.5t-90 -19q-56 0 -104 22.5t-77 60.5q-19 24 -29.5 52t-15 60t-4.5 114v403z" />
    <glyph glyph-name="X" unicode="X" horiz-adv-x="640" 
d="M32 700h102l182 -296h8l182 296h102l-210 -329l222 -371h-104l-192 332h-8l-192 -332h-104l222 371z" />
    <glyph glyph-name="Y" unicode="Y" horiz-adv-x="600" 
d="M20 700h96l184 -330l184 330h96l-234 -403v-297h-92v297z" />
    <glyph glyph-name="Z" unicode="Z" horiz-adv-x="580" 
d="M35 700h510v-85l-418 -536h428v-79h-530v89l419 535h-409v76z" />
    <glyph glyph-name="bracketleft" unicode="[" horiz-adv-x="334" 
d="M70 800h194v-72h-108v-803h108v-75h-194v950z" />
    <glyph glyph-name="backslash" unicode="\" horiz-adv-x="404" 
d="M0 750h84l320 -900h-86z" />
    <glyph glyph-name="bracketright" unicode="]" horiz-adv-x="334" 
d="M70 800h194v-950h-194v75h108v803h-108v72z" />
    <glyph glyph-name="asciicircum" unicode="^" 
d="M233 750h94l183 -301h-86l-137 238h-14l-137 -238h-86z" />
    <glyph glyph-name="underscore" unicode="_" horiz-adv-x="670" 
d="M60 -220h550v-68h-550v68z" />
    <glyph glyph-name="grave" unicode="`" horiz-adv-x="256" 
d="M30 700h82l114 -160h-82z" />
    <glyph glyph-name="a" unicode="a" horiz-adv-x="600" 
d="M530 500v-500h-83l-5 83q-26 -46 -71 -71t-98 -26q-28 0 -60 8t-58 26.5t-44 39.5q-61 73 -61 190t61 190q18 21 44 39.5t58 26.5t60 8q38 -1 73.5 -14t59 -36t36.5 -45l5 81h83zM445 252q0 84 -30 130q-20 30 -52 48t-70 18q-39 0 -69.5 -17.5t-49.5 -45.5
q-33 -49 -33 -133t33 -134q19 -28 49.5 -45.5t69.5 -17.5q38 0 70 18t52 48q30 47 30 131z" />
    <glyph glyph-name="b" unicode="b" horiz-adv-x="600" 
d="M70 700h88v-281q13 22 36.5 45t59 36t73.5 14q28 0 60 -8t58 -26.5t44 -39.5q61 -73 61 -190t-61 -190q-18 -21 -44 -39.5t-58 -26.5t-60 -8q-53 1 -98 26t-71 71l-3 -83h-85v700zM155 252q0 -84 30 -131q20 -30 52 -48t70 -18t69 17.5t50 45.5q32 49 32 134
q0 84 -32 133q-19 28 -50 45.5t-69 17.5t-70 -18t-52 -48q-30 -46 -30 -130z" />
    <glyph glyph-name="c" unicode="c" 
d="M418 181h92q-5 -41 -22.5 -76.5t-43.5 -60.5q-26 -26 -65.5 -43t-90.5 -17q-114 0 -181 85q-57 73 -57 181t57 181q68 85 180 85q98 0 157 -59q27 -26 43 -62.5t18 -73.5h-90q-1 23 -10 46t-22 38q-17 19 -42.5 30.5t-55.5 11.5q-74 0 -114 -66q-29 -48 -29 -130
q0 -80 29 -128q39 -65 114 -67q60 -1 99 41q31 34 34 84z" />
    <glyph glyph-name="d" unicode="d" horiz-adv-x="600" 
d="M442 700h88v-700h-85l-3 83q-26 -46 -71 -71t-98 -26q-28 0 -60 8t-58 26.5t-44 39.5q-61 73 -61 190t61 190q18 21 44 39.5t58 26.5t60 8q38 -1 73.5 -14t59 -36t36.5 -45v281zM445 252q0 84 -30 130q-20 30 -52 48t-70 18t-69 -17.5t-50 -45.5q-18 -27 -25.5 -63.5
t-7.5 -69.5q0 -34 7.5 -70.5t25.5 -63.5q19 -28 50 -45.5t69 -17.5t70 18t52 48q30 47 30 131z" />
    <glyph glyph-name="e" unicode="e" horiz-adv-x="570" 
d="M286 451q-21 0 -44 -6.5t-41.5 -20.5t-29.5 -29q-13 -18 -22 -46.5t-9 -54.5h292q1 28 -8 55.5t-22 45.5q-22 29 -53 42.5t-63 13.5zM429 162h87q-13 -67 -58 -112q-64 -66 -169 -66q-114 0 -180 80q-59 71 -59 186q0 114 59 186q29 36 66.5 54.5t67.5 22t42 3.5
q49 0 88 -15.5t61.5 -35t34.5 -35.5q51 -67 51 -180v-17h-382q-1 -38 8 -69.5t20 -48.5t30 -33t44.5 -23t48.5 -7q65 0 104 39q30 29 36 71z" />
    <glyph glyph-name="f" unicode="f" horiz-adv-x="300" 
d="M278 500v-70h-120v-434h-88v501q0 80 12.5 112t26.5 48q16 18 41.5 32.5t55 18.5t66.5 4h8v-70h-13q-65 0 -92 -38q-6 -9 -11.5 -25t-5.5 -66v-13h120z" />
    <glyph glyph-name="g" unicode="g" horiz-adv-x="600" 
d="M530 500v-500q0 -104 -44 -156q-51 -60 -151 -60h-15v67h15q27 0 51 12.5t36 31.5q7 10 13.5 31t6.5 74v83q-26 -46 -71 -71t-98 -26q-28 0 -60 8t-58 26.5t-44 39.5q-61 73 -61 190t61 190q18 21 44 39.5t58 26.5t60 8q38 -1 73.5 -14t59 -36t36.5 -45l3 81h85zM445 252
q0 84 -30 130q-20 30 -52 48t-70 18t-69 -17.5t-50 -45.5q-32 -49 -32 -133q0 -85 32 -134q19 -28 50 -45.5t69 -17.5t70 18t52 48q30 47 30 131z" />
    <glyph glyph-name="h" unicode="h" 
d="M70 700h89v-279q22 39 58 61q45 28 103 30q45 1 85 -18t63 -51q11 -16 21.5 -45.5t10.5 -103.5v-294h-90v291q0 70 -14 97q-12 22 -36.5 37t-58.5 15q-35 0 -64 -15t-48 -40q-10 -14 -20.5 -40t-10.5 -98v-247h-88v700z" />
    <glyph glyph-name="i" unicode="i" horiz-adv-x="248" 
d="M80 700h88v-98h-88v98zM80 500h88v-500h-88v500z" />
    <glyph glyph-name="j" unicode="j" horiz-adv-x="248" 
d="M80 700h88v-98h-88v98zM80 500h88v-700h-88v700z" />
    <glyph glyph-name="k" unicode="k" horiz-adv-x="510" 
d="M70 700h88v-405h99l137 205h93l-162 -234l165 -266h-100l-134 230h-98v-230h-88v700z" />
    <glyph glyph-name="l" unicode="l" horiz-adv-x="248" 
d="M80 700h88v-700h-88v700z" />
    <glyph glyph-name="m" unicode="m" horiz-adv-x="827" 
d="M70 500h85l4 -78q19 37 50 60q18 14 42.5 22.5t51.5 9.5q50 2 87 -25t53 -71q21 44 61.5 69t89.5 27q46 1 78.5 -14t47.5 -32.5t22 -29.5q9 -16 17 -43.5t8 -110.5v-284h-91v288q0 33 -1.5 59t-9.5 43q-11 24 -35.5 37t-53.5 13q-35 -1 -58.5 -15t-36.5 -35
q-20 -33 -20 -102v-288h-88v288q0 59 -4.5 77.5t-7.5 25.5q-12 24 -32.5 36t-44.5 13q-34 1 -59 -15t-40 -39q-9 -14 -18 -40t-9 -95v-251h-88v500z" />
    <glyph glyph-name="n" unicode="n" 
d="M70 500h85l4 -80q21 39 57 62q45 30 103 30q40 0 80 -16t66 -54q12 -17 23.5 -51t11.5 -124v-267h-91v276q0 78 -18 110q-29 52 -95 52q-68 0 -106 -52q-11 -14 -21.5 -40t-10.5 -95v-251h-88v500z" />
    <glyph glyph-name="o" unicode="o" horiz-adv-x="590" 
d="M50 250q0 56 17 104t45 81q37 43 85.5 62t97.5 19t97.5 -19t85.5 -62q28 -33 45 -81t17 -104t-17 -104t-45 -81q-37 -43 -85.5 -62t-97.5 -19t-97.5 19t-85.5 62q-28 33 -45 81t-17 104zM142 252q0 -81 29 -127q18 -29 50.5 -49t74.5 -20q41 0 73 20t50 49q29 46 29 127
q0 80 -29 126q-23 37 -55.5 53t-68.5 16t-68.5 -16t-55.5 -53q-29 -46 -29 -126z" />
    <glyph glyph-name="p" unicode="p" horiz-adv-x="600" 
d="M70 500h85l3 -81q13 22 36.5 45t59 36t73.5 14q28 0 60 -8t58 -26.5t44 -39.5q61 -73 61 -190t-61 -190q-18 -21 -44 -39.5t-58 -26.5t-60 -8q-53 1 -98 26t-71 71v-283h-88v700zM155 252q0 -84 30 -131q20 -30 52 -48t70 -18t69 17.5t50 45.5q32 49 32 134q0 84 -32 133
q-19 28 -50 45.5t-69 17.5t-70 -18t-52 -48q-30 -46 -30 -130z" />
    <glyph glyph-name="q" unicode="q" horiz-adv-x="600" 
d="M530 500v-700h-88v283q-26 -46 -71 -71t-98 -26q-28 0 -60 8t-58 26.5t-44 39.5q-61 73 -61 190t61 190q18 21 44 39.5t58 26.5t60 8q38 -1 73.5 -14t59 -36t36.5 -45l3 81h85zM445 252q0 84 -30 130q-20 30 -52 48t-70 18t-69 -17.5t-50 -45.5q-32 -49 -32 -133
q0 -85 32 -134q19 -28 50 -45.5t69 -17.5t70 18t52 48q30 47 30 131z" />
    <glyph glyph-name="r" unicode="r" horiz-adv-x="375" 
d="M70 500h85l4 -80q17 35 52 64q16 12 40 20t49 8q29 0 60 -11v-83q-36 20 -74 20q-24 0 -50.5 -11.5t-47.5 -40.5q-10 -15 -20 -41t-10 -100v-245h-88v500z" />
    <glyph glyph-name="s" unicode="s" horiz-adv-x="520" 
d="M50 168h89q-1 -29 9.5 -54.5t29.5 -40.5q33 -26 90 -26q51 0 78 17q13 8 24 24t11 40q0 50 -56 72q-13 6 -51.5 16t-70.5 20q-77 23 -104 50q-34 32 -34 88q1 39 17.5 66.5t40.5 43.5q20 13 55 23.5t81 10.5q82 0 133 -33q39 -25 58 -65.5t20 -83.5h-86q1 29 -10.5 57
t-34.5 43q-15 10 -38 15t-43 5q-45 0 -74 -18q-33 -21 -33 -59q0 -35 29 -54q10 -6 27.5 -13.5t71.5 -22.5q1 0 31 -8.5t56.5 -17.5t46.5 -23q17 -12 31 -30.5t20 -40.5t6 -41q-1 -20 -8 -43t-24 -42t-36 -31q-49 -30 -132 -30q-97 0 -154 45q-18 15 -34.5 38.5t-23.5 51
t-8 51.5z" />
    <glyph glyph-name="t" unicode="t" horiz-adv-x="294" 
d="M20 500h83v96l88 47v-143h83v-66h-83v-434h-88v434h-83v66z" />
    <glyph glyph-name="u" unicode="u" 
d="M60 500h91v-276q0 -35 2.5 -60.5t15.5 -49.5q29 -52 95 -52q68 -1 107 52q15 21 23 50t8 85v251h88v-500h-85l-4 80q-21 -39 -57 -62q-45 -30 -103 -30q-26 0 -55 7.5t-52.5 24.5t-37.5 38q-18 26 -27 65t-9 110v267z" />
    <glyph glyph-name="v" unicode="v" horiz-adv-x="510" 
d="M20 500h93l134 -435h16l134 435h93l-167 -500h-136z" />
    <glyph glyph-name="w" unicode="w" horiz-adv-x="820" 
d="M60 500h90v-285q0 -44 4 -65.5t14 -38.5q13 -23 37.5 -37t52.5 -14q29 0 52.5 14t36.5 37q20 36 20 104v285h86v-285q0 -69 20 -104q31 -51 89 -51q31 0 54 14.5t36 36.5q6 11 12 32t6 72v285h90v-284q0 -50 -6 -86.5t-27 -67.5q-20 -30 -58.5 -52.5t-93.5 -23.5
q-56 0 -100 29t-65 85q-21 -56 -65 -85t-100 -29q-55 1 -93.5 23.5t-58.5 52.5q-16 24 -24.5 57t-8.5 97v284z" />
    <glyph glyph-name="x" unicode="x" horiz-adv-x="510" 
d="M30 500h94l127 -203h8l127 203h94l-155 -235l165 -265h-98l-133 228h-8l-133 -228h-98l165 265z" />
    <glyph glyph-name="y" unicode="y" horiz-adv-x="530" 
d="M20 500h94l151 -432h15l136 432h94l-189 -560q-1 -2 -2 -5.5t-11.5 -33.5t-19 -49t-20.5 -32q-34 -36 -89 -36h-10v72q8 -1 20.5 2t20.5 11q4 4 11 14.5t18 46.5l22 70h-18q-17 0 -30 9.5t-23 34.5z" />
    <glyph glyph-name="z" unicode="z" horiz-adv-x="480" 
d="M44 500h396v-78l-303 -349h303v-73h-400v81l302 349h-298v70z" />
    <glyph glyph-name="braceleft" unicode="{" horiz-adv-x="438" 
d="M70 384h30q38 0 58 22t20 75v164q0 78 39.5 116.5t123.5 38.5h27v-72h-18q-45 0 -65.5 -21.5t-20.5 -70.5v-176q0 -39 -14.5 -67t-50.5 -45q18 -8 34 -22.5t23.5 -36.5t7.5 -51v-220q0 -48 19.5 -70.5t67.5 -22.5h17v-75h-27q-82 0 -122.5 36.5t-40.5 123.5v207
q0 35 -6 53t-23.5 28t-53.5 10h-25v76z" />
    <glyph glyph-name="bar" unicode="|" horiz-adv-x="248" 
d="M80 750h88v-900h-88v900z" />
    <glyph glyph-name="braceright" unicode="}" horiz-adv-x="438" 
d="M70 800h27q84 0 123.5 -38.5t39.5 -116.5v-164q0 -53 20 -75t58 -22h30v-76h-25q-22 0 -42 -5t-30.5 -22.5t-10.5 -63.5v-207q0 -87 -40.5 -123.5t-122.5 -36.5h-27v75h17q48 0 67.5 22.5t19.5 70.5v220q0 29 7.5 51t23.5 36.5t34 22.5q-28 13 -46.5 38t-18.5 74v176
q0 49 -20.5 70.5t-65.5 21.5h-18v72z" />
    <glyph glyph-name="asciitilde" unicode="~" horiz-adv-x="660" 
d="M70 324q67 60 128 60q50 0 132 -46q60 -34 80 -43.5t36.5 -12t22.5 -2.5q57 0 121 72v-68q-67 -60 -128 -60q-50 0 -132 46q-60 34 -80 43.5t-36.5 12t-22.5 2.5q-57 0 -121 -72v68z" />
    <glyph glyph-name="uni00A0" unicode="&#xa0;" horiz-adv-x="233" 
 />
    <glyph glyph-name="exclamdown" unicode="&#xa1;" horiz-adv-x="258" 
d="M93 510h72l13 -510h-98zM81 700h96v-100h-96v100z" />
    <glyph glyph-name="cent" unicode="&#xa2;" horiz-adv-x="610" 
d="M449 188h91q-1 -36 -16 -75.5t-49 -71.5q-28 -25 -66 -40.5t-80 -16.5v-184h-44v185q-97 7 -159 83q-28 35 -42 83.5t-14 98.5t14 98.5t42 83.5q62 76 159 83v185h44v-185q20 -1 46 -6.5t52.5 -19t44.5 -30.5q26 -24 43.5 -61.5t19.5 -81.5h-88q-2 23 -12 48t-23 40
q-5 6 -19.5 17.5t-32.5 17.5t-31 7v-389q53 6 85 41q34 36 35 90zM285 57v389q-59 -8 -93 -63q-17 -27 -24 -63t-7 -69q0 -78 31 -129q34 -56 93 -65z" />
    <glyph glyph-name="sterling" unicode="&#xa3;" horiz-adv-x="600" 
d="M70 364h74v122q0 66 11.5 102t33.5 62q15 18 38.5 32.5t53 21t56.5 6.5t56.5 -6.5t53 -21t38.5 -32.5q22 -25 33.5 -60.5t11.5 -70.5v-9h-80v10q0 21 -6 44.5t-16 38.5q-29 43 -91 43t-91 -43q-22 -31 -22 -94v-7v-138h213v-56h-213v-89v-7q0 -58 -10.5 -85.5
t-32.5 -52.5h349v-74h-460v74q74 35 74 122v112h-74v56z" />
    <glyph glyph-name="currency" unicode="&#xa4;" horiz-adv-x="599" 
d="M70 521l43 43l49 -50q62 48 135 48q77 0 139 -47l49 50l44 -44l-50 -49q47 -63 47 -136q0 -76 -48 -138l50 -49l-43 -43l-49 50q-62 -48 -140 -48q-71 0 -133 48l-49 -50l-44 44l50 49q-48 62 -48 136q0 75 48 137zM299 176q41 0 79.5 20.5t59.5 59.5t21 80
q0 66 -47 112.5t-113 46.5q-33 0 -70 -15.5t-63.5 -55t-26.5 -88.5q0 -68 46.5 -114t113.5 -46z" />
    <glyph glyph-name="yen" unicode="&#xa5;" horiz-adv-x="700" 
d="M70 700h94l186 -313l186 313h94l-211 -336h189v-56h-212v-108h212v-56h-212v-144h-92v144h-212v56h212v108h-212v56h189z" />
    <glyph glyph-name="brokenbar" unicode="&#xa6;" horiz-adv-x="248" 
d="M80 750h88v-280h-88v280zM80 130h88v-280h-88v280z" />
    <glyph glyph-name="section" unicode="&#xa7;" horiz-adv-x="563" 
d="M455 557h-85q1 36 -19.5 69t-68.5 34q-20 0 -39 -6.5t-34.5 -25.5t-14.5 -48q1 -26 15.5 -46t57.5 -41l120 -62q109 -55 107 -149q-1 -26 -12.5 -52.5t-35.5 -47.5t-64 -30q40 -24 58.5 -58.5t18.5 -73.5q0 -68 -49.5 -112t-127.5 -44q-54 0 -94.5 21t-62.5 64.5
t-21 98.5h86q2 -52 24 -82t68 -29q31 1 53.5 15t30 32t7.5 33q0 17 -8 34t-23 29t-43 28l-124 71q-60 34 -83 69t-22 76q1 27 12.5 53.5t35.5 47t64 29.5q-71 41 -73 123q0 27 10 53.5t31.5 48.5t55 35t76.5 12q54 -1 92 -23t59.5 -60t21.5 -86zM232 236l81 -47
q23 1 46.5 12t37.5 32t15 41q1 27 -16 51t-62 48l-83 44q-23 -1 -46.5 -12t-37.5 -32.5t-15 -40.5q0 -25 16.5 -47.5t63.5 -48.5z" />
    <glyph glyph-name="dieresis" unicode="&#xa8;" horiz-adv-x="570" 
d="M119 700h82v-105h-82v105zM370 700h82v-105h-82v105z" />
    <glyph glyph-name="copyright" unicode="&#xa9;" horiz-adv-x="982" 
d="M628 277h72q-8 -73 -54 -123q-56 -60 -153 -60q-107 0 -167 82q-21 29 -35.5 72.5t-15.5 101.5q-2 102 52 175q61 82 166 82q28 0 58.5 -6.5t54 -21t37.5 -30.5q46 -54 53 -126h-71q1 28 -9 51.5t-24 38.5q-18 18 -44 28.5t-56 10.5q-75 -1 -114 -64q-31 -50 -31 -137
q0 -86 31 -136q39 -62 113 -64q22 -1 51 7.5t50 29.5q15 15 25 41t11 48zM70 349q0 63 22 133.5t74 134t115.5 98t116 45t93.5 10.5q63 0 133.5 -22t134 -74t98 -115.5t45 -116t10.5 -93.5q0 -63 -22 -133.5t-74 -134t-115.5 -98t-116 -45t-93.5 -10.5q-63 0 -133.5 22
t-134 74t-98 115.5t-45 116t-10.5 93.5zM126 349q0 -73 28.5 -140.5t78.5 -117.5t117.5 -78.5t140.5 -28.5t140.5 28.5t117.5 78.5t78.5 117.5t28.5 140.5t-28.5 140.5t-78.5 117.5t-117.5 78.5t-140.5 28.5t-140.5 -28.5t-117.5 -78.5t-78.5 -117.5t-28.5 -140.5z" />
    <glyph glyph-name="ordfeminine" unicode="&#xaa;" horiz-adv-x="410" 
d="M342 700v-199q0 -31 2.5 -41t7.5 -18t14.5 -13t23.5 -7l-16 -45q-29 1 -53 17.5t-32 47.5q-8 -16 -24 -31.5t-38 -23t-43 -8.5q-29 -1 -57 12t-47 34q-40 46 -40 119q0 71 40 118q41 47 104 46q16 0 36.5 -5.5t38.5 -20t28 -32.5v50h55zM288 545q0 20 -5.5 43.5
t-14.5 37.5q-11 16 -31.5 28t-43.5 12q-22 0 -43 -11t-33 -29q-19 -30 -19 -81q0 -19 4.5 -42.5t14.5 -39.5q11 -17 31 -28t45 -11t45 11t30 28q9 13 14.5 37.5t5.5 44.5z" />
    <glyph glyph-name="guillemotleft" unicode="&#xab;" horiz-adv-x="568" 
d="M70 285l200 225v-108l-128 -141v-22l128 -141v-108l-200 225v70zM298 285l200 225v-108l-128 -141v-22l128 -141v-108l-200 225v70z" />
    <glyph glyph-name="logicalnot" unicode="&#xac;" horiz-adv-x="660" 
d="M70 302h520v-190h-63v127h-457v63z" />
    <glyph glyph-name="uni00AD" unicode="&#xad;" horiz-adv-x="420" 
d="M70 307h280v-73h-280v73z" />
    <glyph glyph-name="registered" unicode="&#xae;" horiz-adv-x="982" 
d="M322 595h157q81 0 122 -22q17 -9 33.5 -26.5t25 -43t8.5 -49.5q0 -63 -45 -97q-20 -15 -47 -24q31 -18 45 -48l82 -180h-69l-71 161q-14 31 -33 41q-13 7 -49 7h-95v-209h-64v490zM386 543v-178h104q25 0 44.5 3.5t35.5 14.5q33 23 33 70q0 50 -33 73q-24 17 -82 17h-102
zM70 349q0 63 22 133.5t74 134t115.5 98t116 45t93.5 10.5q63 0 133.5 -22t134 -74t98 -115.5t45 -116t10.5 -93.5q0 -63 -22 -133.5t-74 -134t-115.5 -98t-116 -45t-93.5 -10.5q-63 0 -133.5 22t-134 74t-98 115.5t-45 116t-10.5 93.5zM126 349q0 -73 28.5 -140.5
t78.5 -117.5t117.5 -78.5t140.5 -28.5t140.5 28.5t117.5 78.5t78.5 117.5t28.5 140.5t-28.5 140.5t-78.5 117.5t-117.5 78.5t-140.5 28.5t-140.5 -28.5t-117.5 -78.5t-78.5 -117.5t-28.5 -140.5z" />
    <glyph glyph-name="degree" unicode="&#xb0;" horiz-adv-x="475" 
d="M125 544q0 -21 11 -47.5t39.5 -45.5t61.5 -19q21 0 47.5 11t45.5 39.5t19 61.5q0 21 -11 47.5t-39.5 45.5t-61.5 19q-21 0 -47.5 -11t-45.5 -39.5t-19 -61.5zM70 544q0 69 49 118t118 49q25 0 53 -8.5t53.5 -29.5t43.5 -54t18 -75t-22.5 -82.5t-63 -63t-82.5 -22.5
q-25 0 -53 9t-56.5 32.5t-43 58.5t-14.5 68z" />
    <glyph glyph-name="plusminus" unicode="&#xb1;" horiz-adv-x="660" 
d="M70 108h520v-68h-520v68zM70 408h223v152h74v-152h223v-68h-223v-152h-74v152h-223v68z" />
    <glyph glyph-name="acute" unicode="&#xb4;" horiz-adv-x="520" 
d="M303 700h82l-114 -140h-82z" />
    <glyph glyph-name="uni00B5" unicode="&#xb5;" 
d="M70 500h88v-251q0 -54 9 -84t24 -51q37 -51 106 -51q67 0 97 49q18 30 18 93v295h88v-295q0 -44 -6.5 -81.5t-27.5 -67.5q-22 -31 -62 -50t-91 -18q-60 2 -100 29q-32 21 -54 55v-272h-89v700z" />
    <glyph glyph-name="paragraph" unicode="&#xb6;" horiz-adv-x="600" 
d="M530 700v-59h-62l-1 -791h-79l1 791h-110v-341q-50 -2 -90.5 15.5t-66.5 44.5q-52 54 -52 140q0 81 48 133q29 32 72.5 49.5t122.5 17.5h217z" />
    <glyph glyph-name="periodcentered" unicode="&#xb7;" horiz-adv-x="236" 
d="M70 316h96v-100h-96v100z" />
    <glyph glyph-name="ordmasculine" unicode="&#xba;" horiz-adv-x="388" 
d="M40 543q0 69 39 116q19 23 49 37.5t66 14.5t66 -14.5t49 -37.5q39 -47 39 -116q0 -28 -9 -59t-30 -56q-19 -23 -49 -37.5t-66 -14.5t-66 14.5t-49 37.5q-16 19 -27.5 48.5t-11.5 66.5zM99 544q0 -47 18 -78q11 -20 30.5 -33t46.5 -13q20 0 41 10t36 36q18 31 18 78
q0 48 -18 79q-13 22 -34.5 34t-42.5 12t-42.5 -12t-34.5 -34q-18 -31 -18 -79z" />
    <glyph glyph-name="guillemotright" unicode="&#xbb;" horiz-adv-x="568" 
d="M298 510l200 -225v-70l-200 -225v108l128 141v22l-128 141v108zM70 510l200 -225v-70l-200 -225v108l128 141v22l-128 141v108z" />
    <glyph glyph-name="questiondown" unicode="&#xbf;" horiz-adv-x="499" 
d="M222 510h88v-14q0 -78 -43 -131q-13 -17 -52 -52t-46 -43q-38 -45 -38 -101q0 -55 33 -86q12 -11 33 -20t49 -9q62 0 97 47q14 19 21 47.5t6 51.5h90q-1 -38 -14 -75t-33 -64q-58 -79 -168 -77q-43 1 -79 13t-61 32q-29 24 -46.5 61t-18.5 78q-1 68 46 125q15 18 50.5 51
t46.5 46q13 15 23.5 32.5t13 33.5t2.5 40v14zM218 700h96v-100h-96v100z" />
    <glyph glyph-name="AE" unicode="&#xc6;" horiz-adv-x="1014" 
d="M272 700h467l27 -77h-340l79 -220h330l27 -76h-330l90 -249h345l27 -78h-440l-71 213h-296l-71 -213h-96zM328 634l-117 -349h248l-117 349h-14z" />
    <glyph glyph-name="multiply" unicode="&#xd7;" horiz-adv-x="592" 
d="M70 481l49 49l177 -177l177 177l49 -49l-177 -177l177 -177l-49 -49l-177 177l-177 -177l-49 49l177 177z" />
    <glyph glyph-name="ae" unicode="&#xe6;" horiz-adv-x="966" 
d="M522 500v-81q59 97 171 97q49 0 94.5 -21.5t76.5 -64.5q25 -35 38.5 -87t13.5 -105v-6h-390v-11q0 -27 7.5 -54.5t21.5 -49.5q41 -64 121 -65h4q31 0 59 11t45 28q13 13 23 33.5t12 43.5h92q-11 -66 -59 -118q-28 -30 -68.5 -48t-85.5 -18h-3q-35 0 -69.5 11.5t-61 36
t-42.5 51.5v-83h-80v83q-26 -47 -70.5 -70.5t-93.5 -24.5h-4q-46 0 -89 19t-74 55q-61 72 -61 188t61 188q27 32 70.5 53t93.5 21h3q49 -1 93 -24t71 -69v81h80zM445 252q0 80 -32 129q-18 28 -48.5 45.5t-71.5 17.5t-71.5 -17.5t-48.5 -45.5q-32 -49 -32 -129
q0 -81 32 -130q18 -28 48.5 -45.5t71.5 -17.5t71.5 17.5t48.5 45.5q32 49 32 130zM678 451q-79 0 -120 -57q-14 -20 -22.5 -48.5t-8.5 -52.5h302v3q0 55 -31 98q-42 57 -120 57z" />
    <glyph glyph-name="divide" unicode="&#xf7;" horiz-adv-x="660" 
d="M290 540h80v-101h-80v101zM290 161h80v-101h-80v101zM70 338h520v-68h-520v68z" />
    <glyph glyph-name="OE" unicode="&#x152;" horiz-adv-x="1109" 
d="M1046 700v-77h-372v-220h362v-76h-362v-249h380v-78h-468v103q-25 -40 -57 -66.5t-71.5 -39.5t-90.5 -13h-3q-75 0 -134.5 30.5t-100.5 84.5q-37 48 -55.5 113.5t-18.5 137.5q0 62 16.5 129t57.5 122q39 52 98 83.5t137 31.5h3q42 0 83.5 -11t76 -39.5t59.5 -69.5v104
h460zM148 351q0 -72 13.5 -118t36.5 -80q61 -88 169 -88t169 88q23 34 36.5 80t13.5 118q0 71 -13.5 117.5t-36.5 80.5q-16 24 -42 46t-59.5 32.5t-67.5 10.5t-67.5 -10.5t-59.5 -32.5t-42 -46q-23 -34 -36.5 -80.5t-13.5 -117.5z" />
    <glyph glyph-name="oe" unicode="&#x153;" horiz-adv-x="969" 
d="M50 250q0 54 16 102t44 82q31 38 75 60t100 22h3q35 0 73 -11.5t71 -42.5t50 -73q29 63 79.5 95t117.5 32q59 0 107 -24t78 -62q27 -35 41 -86t14 -106v-6h-391v-5q0 -27 8 -58t22 -52q41 -64 121 -65h4q31 0 59 11t45 28q13 13 23 33.5t12 43.5h92q-6 -33 -21.5 -64
t-37.5 -54q-28 -29 -71.5 -47.5t-98.5 -18.5q-72 0 -125.5 33.5t-77.5 91.5q-24 -58 -75.5 -91.5t-118.5 -33.5q-46 0 -93.5 18.5t-84.5 63.5q-28 34 -44 82t-16 102zM679 451q-79 0 -120 -57q-14 -20 -22.5 -48.5t-8.5 -52.5h302v3q0 55 -31 98q-42 57 -120 57zM141 251
q0 -75 28 -124q15 -27 40.5 -45.5t49 -22.5t33.5 -4q36 0 69 17.5t54 54.5q28 49 28 124q0 76 -28 125q-21 38 -54 55.5t-69 17.5t-69 -17.5t-54 -55.5q-28 -49 -28 -125z" />
    <glyph glyph-name="florin" unicode="&#x192;" horiz-adv-x="476" 
d="M54 500h118v16q0 45 12.5 79t30.5 55q23 26 58.5 41t97.5 15h13v-69h-18q-27 0 -48.5 -7.5t-38.5 -30.5q-21 -30 -21 -84v-15h126v-69h-126v-431q0 -63 -11.5 -99.5t-30.5 -58.5q-48 -55 -149 -55h-13v72h15q54 0 82 38q21 29 21 84v19v431h-118v69z" />
    <glyph glyph-name="circumflex" unicode="&#x2c6;" horiz-adv-x="390" 
d="M144 700h102l114 -160h-82l-83 122l-83 -122h-82z" />
    <glyph glyph-name="anoteleia" unicode="&#x387;" horiz-adv-x="236" 
d="M70 316h96v-100h-96v100z" />
    <glyph glyph-name="Delta" unicode="&#x394;" horiz-adv-x="634" 
d="M250 700h134l230 -622v-78h-594v78zM310 630l-195 -552h404l-195 552h-14z" />
    <glyph glyph-name="Delta" unicode="&#x2206;" horiz-adv-x="634" 
d="M250 700h134l230 -622v-78h-594v78zM310 630l-195 -552h404l-195 552h-14z" />
    <glyph glyph-name="Omega" unicode="&#x3a9;" horiz-adv-x="710" 
d="M60 78h179v92q-43 13 -73 35t-51.5 49.5t-38 71t-16.5 96.5v4q0 33 8.5 72t28.5 74.5t46 60.5q36 36 89.5 59t122.5 24h7q52 0 105.5 -17.5t97.5 -60.5q38 -37 61.5 -93t23.5 -121v-4q-1 -90 -48.5 -158t-130.5 -92v-92h175v-78h-241v219q70 12 110 66t41 136
q0 50 -13.5 92.5t-37.5 67.5t-63 41t-87 16q-90 0 -145 -59q-56 -60 -56 -157q0 -46 15 -89t50 -73t86 -41v-219h-245v78z" />
    <glyph glyph-name="Omega" unicode="&#x2126;" horiz-adv-x="710" 
d="M60 78h179v92q-43 13 -73 35t-51.5 49.5t-38 71t-16.5 96.5v4q0 33 8.5 72t28.5 74.5t46 60.5q36 36 89.5 59t122.5 24h7q52 0 105.5 -17.5t97.5 -60.5q38 -37 61.5 -93t23.5 -121v-4q-1 -90 -48.5 -158t-130.5 -92v-92h175v-78h-241v219q70 12 110 66t41 136
q0 50 -13.5 92.5t-37.5 67.5t-63 41t-87 16q-90 0 -145 -59q-56 -60 -56 -157q0 -46 15 -89t50 -73t86 -41v-219h-245v78z" />
    <glyph glyph-name="mu" unicode="&#x3bc;" 
d="M70 500h88v-251q0 -54 9 -84t24 -51q37 -51 106 -51q67 0 97 49q18 30 18 93v295h88v-295q0 -44 -6.5 -81.5t-27.5 -67.5q-22 -30 -60.5 -49t-88.5 -19h-4q-60 2 -100 29q-32 21 -54 55v-272h-89v700z" />
    <glyph glyph-name="pi" unicode="&#x3c0;" horiz-adv-x="580" 
d="M10 500h560v-71h-80v-429h-88v428h-224v-428h-88v427h-80v73z" />
    <glyph glyph-name="afii10023" unicode="&#x401;" horiz-adv-x="620" 
d="M75 700h452v-76h-362v-221h344v-76h-344v-248h370v-79h-460v700zM143 820h94v-70h-94v70zM395 820h94v-70h-94v70z" />
    <glyph glyph-name="afii10051" unicode="&#x402;" horiz-adv-x="790" 
d="M30 700h510v-77h-226v-208h135q63 0 110.5 -8t82.5 -32q39 -28 58.5 -72t19.5 -94q0 -30 -8.5 -63t-27.5 -59.5t-42 -43.5q-31 -22 -73.5 -32.5t-119.5 -10.5h-10v73h11q54 0 80.5 5.5t45.5 18.5q52 36 52 110t-52 110q-13 9 -36.5 16.5t-90.5 7.5h-135v-341h-90v623
h-194v77z" />
    <glyph glyph-name="afii10052" unicode="&#x403;" horiz-adv-x="455" 
d="M75 700h400v-76h-310v-624h-90v700zM301 840h86l-97 -110h-86z" />
    <glyph glyph-name="afii10053" unicode="&#x404;" horiz-adv-x="710" 
d="M454 396v-78h-302q0 -39 10.5 -84t30.5 -78q25 -42 66.5 -67.5t100.5 -26.5q45 0 85 16t64 41q20 21 34.5 56t16.5 73h95q-10 -101 -76 -173q-84 -91 -214 -91h-4q-152 2 -237 120q-32 45 -50.5 108t-18.5 138q0 68 17 133t51 113q38 54 97.5 86.5t140.5 33.5h4
q67 0 120 -23.5t88 -60.5q29 -30 47.5 -67.5t23.5 -67t6 -41.5h-94q-1 26 -11.5 61t-35.5 64q-25 28 -64 44t-84 16q-61 -1 -103.5 -28t-66.5 -67q-19 -31 -28.5 -71t-9.5 -74v-5h301z" />
    <glyph glyph-name="afii10054" unicode="&#x405;" horiz-adv-x="640" 
d="M55 224h94q0 -82 52 -125q48 -39 127 -39q72 0 113 30q19 13 34 38t16 61q0 64 -54 96q-26 16 -139 46q-59 16 -97 29.5t-68 38.5q-58 49 -58 128q0 89 70 141q66 49 173 48q106 0 176 -56q20 -16 40 -43t31.5 -63.5t13.5 -73.5h-90q-4 96 -60 134q-23 16 -55.5 22.5
t-59.5 6.5q-26 0 -58 -7.5t-51 -22.5q-17 -14 -28 -36.5t-10 -49.5q1 -51 44 -82q13 -9 31.5 -16t98.5 -28q74 -19 106.5 -32.5t53.5 -26.5q85 -55 84 -157q-1 -49 -22.5 -89.5t-62.5 -67.5q-67 -44 -172 -44q-115 0 -185 55q-39 32 -63.5 82t-24.5 103z" />
    <glyph glyph-name="afii10055" unicode="&#x406;" horiz-adv-x="262" 
d="M85 700h92v-700h-92v700z" />
    <glyph glyph-name="afii10056" unicode="&#x407;" horiz-adv-x="316" 
d="M112 700h92v-700h-92v700zM30 875h88v-98h-88v98zM198 875h88v-98h-88v98z" />
    <glyph glyph-name="afii10057" unicode="&#x408;" horiz-adv-x="305" 
d="M150 700h90v-482q0 -74 -15.5 -117t-45.5 -70q-53 -47 -159 -47h-20v78h20q73 0 104 38q26 33 26 118v482z" />
    <glyph glyph-name="afii10058" unicode="&#x409;" horiz-adv-x="1020" 
d="M263 700h134l91 -261h234q71 0 113 -13t73 -36q45 -34 63.5 -79.5t18.5 -91.5q0 -31 -9 -65.5t-30 -63t-46 -45.5q-30 -22 -72.5 -33.5t-121.5 -11.5h-167l-207 630h-14l-207 -630h-96zM614 76h107q87 0 126 29q21 15 36 44t15 71q0 32 -11.5 63.5t-39.5 51.5
q-39 29 -126 29h-207z" />
    <glyph glyph-name="afii10059" unicode="&#x40a;" horiz-adv-x="1035" 
d="M75 700h90v-291h342v291h90v-291h132q127 0 186 -48q29 -23 49 -64.5t21 -92.5q0 -28 -7.5 -60t-26 -57.5t-39.5 -41.5q-28 -21 -71 -33t-123 -12h-211v334h-342v-334h-90v700zM597 334v-258h131q85 0 122 29q44 35 43 100q-1 29 -11 57t-28 43q-16 14 -44.5 21.5
t-81.5 7.5h-131z" />
    <glyph glyph-name="afii10060" unicode="&#x40b;" horiz-adv-x="805" 
d="M30 700h510v-77h-225v-259q7 9 28.5 32.5t53.5 41.5q22 13 52.5 21t59.5 8q60 0 110.5 -27.5t77.5 -71.5q19 -30 28.5 -70t9.5 -119v-179h-93v179q0 58 -5.5 86.5t-14.5 46.5q-12 23 -36 42t-50.5 26t-47.5 7q-36 -1 -72 -18t-57 -42q-44 -53 -44 -148v-179h-90v623h-195
v77z" />
    <glyph glyph-name="afii10061" unicode="&#x40c;" horiz-adv-x="625" 
d="M75 700h90v-294h124l202 294h102l-229 -328l231 -372h-106l-200 334h-124v-334h-90v700zM357 840h86l-97 -110h-86z" />
    <glyph glyph-name="afii10062" unicode="&#x40e;" horiz-adv-x="600" 
d="M25 700h96l178 -442h16l174 442h96l-210 -501q-7 -17 -23.5 -57t-26 -60.5t-18 -33.5t-14.5 -19.5t-8 -8.5q-35 -34 -90 -34h-12v69h10q15 0 34 12t39 63l24 59h-20q-8 0 -16 3t-15 11t-19 36zM121 850h80q4 -25 27 -46q28 -25 73 -25t73 25q23 21 27 46h80
q-16 -53 -54 -88q-50 -45 -126 -45t-126 45q-38 35 -54 88z" />
    <glyph glyph-name="afii10145" unicode="&#x40f;" horiz-adv-x="680" 
d="M75 700h90v-624h350v624h90v-700h-222v-200h-86v200h-222v700z" />
    <glyph glyph-name="afii10017" unicode="&#x410;" horiz-adv-x="670" 
d="M268 700h134l248 -700h-96l-72 213h-294l-72 -213h-96zM326 632l-114 -347h246l-114 347h-18z" />
    <glyph glyph-name="afii10018" unicode="&#x411;" horiz-adv-x="625" 
d="M75 700h457v-76h-367v-209h139q55 0 85 -3t58.5 -12.5t49.5 -24.5q38 -28 58 -70.5t20 -95.5q0 -30 -8.5 -63t-27.5 -59.5t-42 -43.5q-31 -22 -73.5 -32.5t-119.5 -10.5h-229v700zM165 341v-268h140q54 0 80.5 5.5t45.5 18.5q22 15 36 42.5t15 67.5q0 76 -51 110
q-13 9 -37 16.5t-90 7.5h-139z" />
    <glyph glyph-name="afii10019" unicode="&#x412;" horiz-adv-x="640" 
d="M80 700h240q76 0 111.5 -8t62.5 -25q34 -21 55 -56t21 -83q0 -28 -11 -61t-40 -59t-67 -37q28 -8 58.5 -28.5t50 -59.5t19.5 -87q0 -47 -19.5 -89.5t-58.5 -68.5q-28 -19 -67.5 -28.5t-114.5 -9.5h-240v700zM170 334v-261h150q38 0 66 3t50 17q52 33 52 111
q0 41 -14 68.5t-38 42.5q-12 7 -31 13t-85 6h-150zM170 630v-226h150q37 0 64.5 3t49.5 17q46 29 46 94t-46 93q-11 6 -33 12.5t-81 6.5h-150z" />
    <glyph glyph-name="afii10020" unicode="&#x413;" horiz-adv-x="445" 
d="M75 700h400v-76h-310v-624h-90v700z" />
    <glyph glyph-name="afii10021" unicode="&#x414;" horiz-adv-x="634" 
d="M250 700h134l230 -621v-79h-594v79zM308 632l-193 -553h404l-193 553h-18z" />
    <glyph glyph-name="afii10022" unicode="&#x415;" horiz-adv-x="590" 
d="M75 700h452v-76h-362v-221h344v-76h-344v-248h370v-79h-460v700z" />
    <glyph glyph-name="afii10024" unicode="&#x416;" horiz-adv-x="940" 
d="M22 700h100l182 -298h122v298h88v-298h122l182 298h100l-206 -328l208 -372h-106l-178 338h-122v-338h-88v338h-122l-178 -338h-106l208 372z" />
    <glyph glyph-name="afii10025" unicode="&#x417;" horiz-adv-x="639" 
d="M257 405h63q48 0 71.5 5t40.5 15q49 30 49 99q-1 31 -12 54t-37 40q-40 25 -109 25q-71 0 -114 -32q-25 -19 -40.5 -53t-15.5 -78h-92q1 29 10.5 64t31.5 67.5t48 52.5q67 52 172 52q109 0 173 -45q34 -24 55 -60t22 -82q1 -58 -32.5 -102t-90.5 -58q65 -19 100.5 -65
t34.5 -113q0 -99 -78 -156q-71 -52 -185 -51q-106 2 -174 52q-45 33 -69.5 83t-23.5 105h93q-1 -44 15 -77.5t41 -52.5q44 -34 119 -34t114 27q55 36 55 108q0 75 -58 111q-20 12 -45.5 19t-68.5 7h-63v73z" />
    <glyph glyph-name="afii10026" unicode="&#x418;" horiz-adv-x="680" 
d="M75 700h90v-420l350 250v170h90v-700h-90v440l-350 -250v-190h-90v700z" />
    <glyph glyph-name="afii10027" unicode="&#x419;" horiz-adv-x="680" 
d="M75 700h90v-420l350 250v170h90v-700h-90v440l-350 -250v-190h-90v700zM157 850h80q4 -25 27 -46q28 -25 73 -25t73 25q23 21 27 46h80q-16 -53 -54 -88q-50 -45 -126 -45t-126 45q-38 35 -54 88z" />
    <glyph glyph-name="afii10028" unicode="&#x41a;" horiz-adv-x="615" 
d="M75 700h90v-294h124l202 294h102l-229 -328l231 -372h-106l-200 334h-124v-334h-90v700z" />
    <glyph glyph-name="afii10029" unicode="&#x41b;" horiz-adv-x="660" 
d="M261 700h138l241 -700h-96l-205 632h-18l-205 -632h-96z" />
    <glyph glyph-name="afii10030" unicode="&#x41c;" horiz-adv-x="790" 
d="M75 700h94l226 -285l226 285h94v-700h-88v594l-232 -295l-232 295v-594h-88v700z" />
    <glyph glyph-name="afii10031" unicode="&#x41d;" horiz-adv-x="680" 
d="M75 700h90v-293h350v293h90v-700h-90v329h-350v-329h-90v700z" />
    <glyph glyph-name="afii10032" unicode="&#x41e;" horiz-adv-x="730" 
d="M55 350q0 84 22.5 149.5t57.5 109.5q86 107 230 107t230 -107q35 -44 57.5 -109.5t22.5 -149.5t-22.5 -149.5t-57.5 -109.5q-86 -107 -230 -107t-230 107q-35 44 -57.5 109.5t-22.5 149.5zM148 352q0 -126 50 -200q15 -22 40.5 -44t59.5 -34t67 -12t67 12t59.5 34
t40.5 44q50 74 50 200q0 125 -50 199q-15 22 -40.5 44t-59.5 34t-67 12t-67 -12t-59.5 -34t-40.5 -44q-50 -74 -50 -199z" />
    <glyph glyph-name="afii10033" unicode="&#x41f;" horiz-adv-x="680" 
d="M75 700h530v-700h-90v624h-350v-624h-90v700z" />
    <glyph glyph-name="afii10034" unicode="&#x420;" horiz-adv-x="610" 
d="M80 700h202q82 0 123.5 -11t72.5 -34q82 -59 82 -174t-82 -174q-31 -23 -72.5 -34t-123.5 -11h-112v-262h-90v700zM170 628v-292h118q91 0 129 29q50 36 50 117t-50 117q-38 29 -129 29h-118z" />
    <glyph glyph-name="afii10035" unicode="&#x421;" horiz-adv-x="710" 
d="M561 248h94q-5 -50 -25.5 -96t-50.5 -80q-81 -89 -211 -88q-71 1 -133 29.5t-109 92.5q-71 97 -71 244t71 244q48 65 111.5 93.5t130.5 28.5q31 0 69.5 -8t74.5 -28.5t62 -47.5q29 -30 50.5 -75t25.5 -101h-93q-3 74 -48 125q-22 26 -57.5 43t-82.5 17q-42 0 -78.5 -16
t-59.5 -38t-35 -41q-47 -75 -47 -195q0 -53 11.5 -105.5t35.5 -89.5q26 -41 71.5 -67.5t101.5 -26.5q42 0 78 15.5t61 41.5q27 29 39.5 63t13.5 66z" />
    <glyph glyph-name="afii10036" unicode="&#x422;" 
d="M20 700h520v-76h-216v-624h-90v624h-214v76z" />
    <glyph glyph-name="afii10037" unicode="&#x423;" horiz-adv-x="595" 
d="M25 700h96l178 -442h16l174 442h96l-210 -501q-7 -17 -23.5 -57t-26 -60.5t-18 -33.5t-14.5 -19.5t-8 -8.5q-35 -34 -90 -34h-12v69h10q15 0 34 12t39 63l24 59h-20q-8 0 -16 3t-15 11t-19 36z" />
    <glyph glyph-name="afii10038" unicode="&#x424;" horiz-adv-x="950" 
d="M149 352q0 -134 71 -207q25 -26 62.5 -46.5t77.5 -28.5t72 -7v577q-32 0 -72 -7.5t-78 -28t-62 -45.5q-71 -73 -71 -207zM801 352q0 134 -71 207q-24 25 -62 45.5t-78 28t-72 7.5v-577q32 -1 72 7t77.5 28.5t62.5 46.5q71 73 71 207zM55 350q0 82 28 150.5t82 117.5
q33 30 79 52t104 32t125 10q110 0 185 -23.5t127 -70.5q33 -30 58 -70t38.5 -89t13.5 -109q0 -48 -11 -99t-38.5 -95t-60.5 -74q-107 -94 -310 -94q-61 0 -113 8t-102.5 29t-94.5 61q-28 25 -54.5 64t-41 91.5t-14.5 108.5z" />
    <glyph glyph-name="afii10039" unicode="&#x425;" horiz-adv-x="640" 
d="M32 700h102l182 -296h8l182 296h102l-210 -329l222 -371h-104l-192 332h-8l-192 -332h-104l222 371z" />
    <glyph glyph-name="afii10040" unicode="&#x426;" horiz-adv-x="700" 
d="M75 700h90v-624h350v624h90v-623h80l-30 -77h-580v700z" />
    <glyph glyph-name="afii10041" unicode="&#x427;" horiz-adv-x="630" 
d="M55 700h90v-205q0 -41 3 -73.5t17 -59.5q10 -20 29.5 -38t46 -27t51.5 -9q42 -1 75.5 16t53.5 42q44 54 44 149v205h90v-700h-90v308q-28 -49 -81 -75q-49 -24 -105 -24q-37 0 -72.5 10.5t-65 34t-47.5 52.5q-19 30 -29 71.5t-10 117.5v205z" />
    <glyph glyph-name="afii10042" unicode="&#x428;" horiz-adv-x="1020" 
d="M75 700h90v-622h301v622h88v-622h301v622h90v-700h-870v700z" />
    <glyph glyph-name="afii10043" unicode="&#x429;" horiz-adv-x="1040" 
d="M75 700h90v-622h301v622h88v-622h301v622h90v-622h80l-30 -78h-920v700z" />
    <glyph glyph-name="afii10044" unicode="&#x42a;" horiz-adv-x="660" 
d="M20 700h190v-261h132q56 0 102.5 -9t83.5 -35q34 -24 54 -61.5t24 -69t4 -44.5q0 -47 -14.5 -85t-33.5 -59t-34 -32q-28 -20 -71 -32t-115 -12h-222v626h-100v74zM210 364v-288h131q60 0 84.5 7t41.5 20q50 37 50 117t-50 117q-8 6 -18 11t-22 8.5t-23.5 5t-20.5 2
t-16 0.5h-15.5h-10.5h-131z" />
    <glyph glyph-name="afii10045" unicode="&#x42b;" horiz-adv-x="830" 
d="M665 700h90v-700h-90v700zM75 700h90v-261h132q56 0 102.5 -9t83.5 -35q34 -24 54 -61.5t24 -69t4 -44.5q0 -47 -14.5 -85t-33.5 -59t-34 -32q-28 -20 -71 -32t-115 -12h-222v700zM165 364v-288h131q60 0 84.5 7t41.5 20q50 37 50 117t-50 117q-8 6 -18 11t-22 8.5
t-23.5 5t-20.5 2t-16 0.5h-15.5h-10.5h-131z" />
    <glyph glyph-name="afii10046" unicode="&#x42c;" horiz-adv-x="615" 
d="M75 700h90v-261h132q56 0 102.5 -9t83.5 -35q34 -24 54 -61.5t24 -69t4 -44.5q0 -47 -14.5 -85t-33.5 -59t-34 -32q-28 -20 -71 -32t-115 -12h-222v700zM165 364v-288h131q60 0 84.5 7t41.5 20q50 37 50 117t-50 117q-8 6 -18 11t-22 8.5t-23.5 5t-20.5 2t-16 0.5h-15.5
h-10.5h-131z" />
    <glyph glyph-name="afii10047" unicode="&#x42d;" horiz-adv-x="710" 
d="M256 396h301q1 35 -8.5 76t-29.5 74q-24 40 -66.5 67t-103.5 28q-45 0 -84 -16t-64 -44q-20 -23 -33 -56.5t-14 -68.5h-94q4 51 23.5 96t53.5 80q82 85 212 84q81 -1 140.5 -33.5t97.5 -86.5q34 -48 51 -113t17 -133q0 -75 -18.5 -138t-50.5 -108q-85 -118 -237 -120
q-58 -1 -116.5 20t-103.5 69q-29 32 -49.5 78.5t-24.5 96.5h95q2 -38 16.5 -73t34.5 -56q24 -25 64 -41t85 -16q59 1 100.5 26.5t66.5 67.5q15 25 28 68t13 94h-302v78z" />
    <glyph glyph-name="afii10048" unicode="&#x42e;" horiz-adv-x="960" 
d="M75 700h90v-306h132q3 57 23.5 115t54.5 100q25 31 62 57t79.5 38t83.5 12t83.5 -12t79.5 -38t62 -57q36 -44 58 -109.5t22 -149.5t-22 -149.5t-58 -109.5q-25 -31 -62 -57t-79.5 -38t-83.5 -12t-83.5 12t-79.5 38t-62 57q-37 46 -57 108t-22 121h-131v-320h-90v700z
M389 352q0 -127 49 -200q28 -42 71.5 -66t90.5 -24t90.5 24t71.5 66q49 73 49 200q0 126 -49 199q-28 42 -71.5 66t-90.5 24t-90.5 -24t-71.5 -66q-49 -73 -49 -199z" />
    <glyph glyph-name="afii10049" unicode="&#x42f;" horiz-adv-x="650" 
d="M570 700v-700h-90v298h-123q-38 0 -51 -3t-19 -6q-31 -16 -49 -60l-99 -229h-99l118 256q11 25 27.5 44t42.5 26q-9 2 -34 10t-48 26q-26 21 -42.5 56t-17.5 81q-1 55 24 99.5t71 70.5q19 11 52 21t122 10h215zM480 626h-138q-43 0 -62 -2.5t-34 -10.5t-21 -12
q-47 -34 -47 -104q0 -66 47 -101q15 -11 28.5 -16t26 -7.5t60.5 -2.5h140v256z" />
    <glyph glyph-name="afii10065" unicode="&#x430;" horiz-adv-x="600" 
d="M530 500v-500h-83l-5 83q-26 -46 -71 -71t-98 -26q-28 0 -60 8t-58 26.5t-44 39.5q-61 73 -61 190t61 190q18 21 44 39.5t58 26.5t60 8q38 -1 73.5 -14t59 -36t36.5 -45l5 81h83zM445 252q0 84 -30 130q-20 30 -52 48t-70 18q-39 0 -69.5 -17.5t-49.5 -45.5
q-33 -49 -33 -133t33 -134q19 -28 49.5 -45.5t69.5 -17.5q38 0 70 18t52 48q30 47 30 131z" />
    <glyph glyph-name="afii10066" unicode="&#x431;" horiz-adv-x="590" 
d="M448 245q0 83 -29 126q-17 26 -48 44t-72 18q-22 0 -46.5 -7.5t-43 -23t-29.5 -31.5q-31 -45 -31 -126q0 -82 31 -127q11 -16 29.5 -31.5t43 -23t46.5 -7.5q31 0 64 14t56 48q29 44 29 127zM478 700v-70h-154q-55 0 -84.5 -11.5t-49.5 -35.5q-39 -47 -39 -145v-23
q26 44 69.5 65t92.5 21q51 0 96 -21.5t74 -56.5q26 -31 41.5 -78.5t15.5 -101.5q0 -55 -15 -100.5t-41 -77.5q-33 -40 -80 -60.5t-105 -20.5q-33 0 -69.5 9t-67 30.5t-50.5 49.5q-52 73 -52 216v73q0 185 63 263q23 28 49 43.5t59 23.5t104 8h143z" />
    <glyph glyph-name="afii10067" unicode="&#x432;" horiz-adv-x="570" 
d="M60 285v147q0 86 12 130.5t34 74.5q17 23 44 42t61.5 28t70.5 9q48 0 86.5 -12.5t64.5 -33.5q28 -23 46 -59t17 -83q-2 -59 -33 -101q-13 -17 -32 -31t-42 -22q27 -7 50 -21.5t37 -30.5q44 -48 44 -127q0 -41 -15 -83t-52 -75q-60 -53 -164 -53q-37 0 -73.5 9.5
t-64.5 30.5t-46 48q-22 33 -33.5 81.5t-11.5 131.5zM230 403h54q62 0 95 35q12 13 21 35.5t9 52.5q0 58 -33 89q-35 33 -94 32q-45 -1 -73 -19t-41 -44q-8 -15 -14 -45t-6 -107v-147q0 -53 3.5 -92.5t20.5 -70.5q35 -64 117 -66q37 -1 64 11.5t43 30.5q32 36 32 104
q0 66 -30 98q-5 5 -18 15.5t-33.5 15t-62.5 4.5h-54v68z" />
    <glyph glyph-name="afii10068" unicode="&#x433;" horiz-adv-x="519" 
d="M381 168h89q-2 -39 -17.5 -77t-48.5 -64q-58 -46 -160 -45q-77 0 -127 30q-64 39 -67 116q-1 71 57 112q30 21 134 49q80 22 99 36q29 19 29 54q0 38 -33 59q-30 18 -74 18q-53 0 -81 -20q-19 -14 -32.5 -39t-12.5 -61h-86q1 46 22 86t57 63q50 33 132 33q40 0 76.5 -9
t59.5 -25q24 -16 40.5 -43.5t17.5 -66.5q0 -56 -34 -88q-27 -27 -104 -50q-30 -9 -69.5 -20t-52.5 -16q-27 -11 -41.5 -28t-14.5 -44q0 -19 9 -36t26 -28q27 -17 78 -17q57 0 90 26q19 15 29.5 40.5t9.5 54.5z" />
    <glyph glyph-name="afii10069" unicode="&#x434;" horiz-adv-x="600" 
d="M530 500v-500q0 -104 -44 -156q-51 -60 -151 -60h-15v67h15q27 0 51 12.5t36 31.5q7 10 13.5 31t6.5 74v83q-26 -46 -71 -71t-98 -26q-28 0 -60 8t-58 26.5t-44 39.5q-61 73 -61 190t61 190q18 21 44 39.5t58 26.5t60 8q38 -1 73.5 -14t59 -36t36.5 -45l4 81h84zM445 252
q0 84 -30 130q-20 30 -52 48t-70 18t-69 -17.5t-50 -45.5q-32 -49 -32 -133q0 -85 32 -134q19 -28 50 -45.5t69 -17.5t70 18t52 48q30 47 30 131z" />
    <glyph glyph-name="afii10070" unicode="&#x435;" horiz-adv-x="570" 
d="M286 451q-21 0 -44 -6.5t-41.5 -20.5t-29.5 -29q-13 -18 -22 -46.5t-9 -54.5h292q1 28 -8 55.5t-22 45.5q-22 29 -53 42.5t-63 13.5zM429 162h87q-13 -67 -58 -112q-64 -66 -169 -66q-114 0 -180 80q-59 71 -59 186q0 114 59 186q29 36 66.5 54.5t67.5 22t42 3.5
q49 0 88 -15.5t61.5 -35t34.5 -35.5q51 -67 51 -180v-17h-382q-1 -38 8 -69.5t20 -48.5t30 -33t44.5 -23t48.5 -7q65 0 104 39q30 29 36 71z" />
    <glyph glyph-name="afii10072" unicode="&#x436;" horiz-adv-x="730" 
d="M23 500h90l121 -209h89v209h84v-209h89l119 209h92l-142 -234l145 -266h-94l-120 233h-89v-233h-84v233h-89l-120 -233h-94l145 266z" />
    <glyph glyph-name="afii10073" unicode="&#x437;" horiz-adv-x="520" 
d="M221 290h34q40 0 57.5 4t30.5 13q29 20 29 62q0 46 -35 67q-28 17 -77 17q-16 0 -37.5 -4.5t-37.5 -14.5q-43 -27 -42 -90h-88q2 42 22 80t58 62q25 15 60.5 23.5t66.5 8.5q34 0 69.5 -8t58.5 -22q29 -17 48.5 -46.5t19.5 -68.5q0 -21 -8.5 -41.5t-20.5 -34.5
q-10 -10 -25 -20t-30 -15q39 -13 65 -41q31 -34 31 -83q0 -22 -7.5 -46.5t-24 -44t-36.5 -32.5q-53 -33 -140 -33q-83 0 -135 36q-30 21 -52.5 58t-24.5 82h89q0 -54 38 -83q33 -25 82 -25q51 0 83 20q38 25 38 72q0 43 -33 65q-9 6 -26 12t-66 6h-34v65z" />
    <glyph glyph-name="afii10074" unicode="&#x438;" 
d="M60 500h91v-276q0 -35 2.5 -60.5t15.5 -49.5q29 -52 95 -52q68 -1 107 52q15 21 23 50t8 85v251h88v-500h-85l-4 80q-21 -39 -57 -62q-45 -30 -103 -30q-26 0 -55 7.5t-52.5 24.5t-37.5 38q-18 26 -27 65t-9 110v267z" />
    <glyph glyph-name="afii10075" unicode="&#x439;" 
d="M60 500h91v-276q0 -35 2.5 -60.5t15.5 -49.5q29 -52 95 -52q68 -1 107 52q15 21 23 50t8 85v251h88v-500h-85l-4 80q-21 -39 -57 -62q-45 -30 -103 -30q-26 0 -55 7.5t-52.5 24.5t-37.5 38q-18 26 -27 65t-9 110v267zM114 700h77q2 -35 20 -58q24 -31 69 -31t69 31
q18 23 20 58h77q-5 -67 -50 -110q-47 -45 -116 -45t-116 45q-45 43 -50 110z" />
    <glyph glyph-name="afii10076" unicode="&#x43a;" horiz-adv-x="510" 
d="M70 500h88v-205h99l137 205h93l-162 -234l165 -266h-100l-134 230h-98v-230h-88v500z" />
    <glyph glyph-name="afii10077" unicode="&#x43b;" horiz-adv-x="520" 
d="M192 500h136l172 -500h-94l-138 438h-16l-138 -438h-94z" />
    <glyph glyph-name="afii10078" unicode="&#x43c;" horiz-adv-x="650" 
d="M70 500h94l161 -200l161 200h94v-500h-88v407l-167 -207l-167 207v-407h-88v500z" />
    <glyph glyph-name="afii10079" unicode="&#x43d;" 
d="M70 500h88v-203h244v203h88v-500h-88v228h-244v-228h-88v500z" />
    <glyph glyph-name="afii10080" unicode="&#x43e;" horiz-adv-x="590" 
d="M50 250q0 56 17 104t45 81q37 43 85.5 62t97.5 19t97.5 -19t85.5 -62q28 -33 45 -81t17 -104t-17 -104t-45 -81q-37 -43 -85.5 -62t-97.5 -19t-97.5 19t-85.5 62q-28 33 -45 81t-17 104zM142 252q0 -81 29 -127q18 -29 50.5 -49t74.5 -20q41 0 73 20t50 49q29 46 29 127
q0 80 -29 126q-23 37 -55.5 53t-68.5 16t-68.5 -16t-55.5 -53q-29 -46 -29 -126z" />
    <glyph glyph-name="afii10081" unicode="&#x43f;" 
d="M70 500h85l4 -80q21 39 57 62q45 30 103 30q26 0 55 -7.5t52.5 -24.5t37.5 -38q18 -26 27 -65t9 -110v-267h-91v276q0 78 -18 110q-29 52 -95 52q-68 0 -106 -52q-11 -14 -21.5 -40t-10.5 -95v-251h-88v500z" />
    <glyph glyph-name="afii10082" unicode="&#x440;" horiz-adv-x="600" 
d="M70 500h85l3 -81q13 22 36.5 45t59 36t73.5 14q28 0 60 -8t58 -26.5t44 -39.5q61 -73 61 -190t-61 -190q-18 -21 -44 -39.5t-58 -26.5t-60 -8q-53 1 -98 26t-71 71v-283h-88v700zM155 252q0 -84 30 -131q20 -30 52 -48t70 -18t69 17.5t50 45.5q32 49 32 134q0 84 -32 133
q-19 28 -50 45.5t-69 17.5t-70 -18t-52 -48q-30 -46 -30 -130z" />
    <glyph glyph-name="afii10083" unicode="&#x441;" 
d="M418 181h92q-5 -41 -22.5 -76.5t-43.5 -60.5q-26 -26 -65.5 -43t-90.5 -17q-114 0 -181 85q-57 73 -57 181t57 181q68 85 180 85q98 0 157 -59q27 -26 43 -62.5t18 -73.5h-90q-1 23 -10 46t-22 38q-17 19 -42.5 30.5t-55.5 11.5q-74 0 -114 -66q-29 -48 -29 -130
q0 -80 29 -128q39 -65 114 -67q60 -1 99 41q31 34 34 84z" />
    <glyph glyph-name="afii10084" unicode="&#x442;" horiz-adv-x="420" 
d="M20 500h380v-70h-146v-430h-88v430h-146v70z" />
    <glyph glyph-name="afii10085" unicode="&#x443;" horiz-adv-x="530" 
d="M20 500h94l151 -432h15l136 432h94l-189 -560q-1 -2 -2 -5.5t-11.5 -33.5t-19 -49t-20.5 -32q-34 -36 -89 -36h-10v72q8 -1 20.5 2t20.5 11q4 4 11 14.5t18 46.5l22 70h-18q-17 0 -30 9.5t-23 34.5z" />
    <glyph glyph-name="afii10086" unicode="&#x444;" horiz-adv-x="764" 
d="M144 252q0 -56 18 -95t47 -61q23 -18 59 -28t71 -9v386q-79 0 -128 -37q-30 -23 -48.5 -61t-18.5 -95zM620 252q0 106 -67 156q-49 37 -128 37v-386q79 0 128 37q67 50 67 156zM50 250q0 70 29 122t75 83q36 25 87 38.5t138 13.5q89 0 142 -13.5t89 -38.5q46 -31 75 -83
t29 -122q0 -39 -11.5 -78.5t-36.5 -72.5t-56 -54q-37 -26 -86.5 -39t-98.5 -12v-194h-86v194q-50 -2 -99 11.5t-86 39.5q-31 22 -56 54.5t-36.5 72t-11.5 78.5z" />
    <glyph glyph-name="afii10087" unicode="&#x445;" horiz-adv-x="510" 
d="M30 500h94l127 -203h8l127 203h94l-155 -235l165 -265h-98l-133 228h-8l-133 -228h-98l165 265z" />
    <glyph glyph-name="afii10088" unicode="&#x446;" horiz-adv-x="590" 
d="M60 500h90v-281q0 -36 2.5 -60t12.5 -44q12 -22 35.5 -38t60.5 -16q66 0 101 53q28 41 28 113v273h90v-362q0 -50 16 -72q10 -14 29.5 -23.5t44.5 -8.5v-234h-89v200q-19 1 -35.5 9.5t-27.5 20.5q-7 9 -13 22.5t-7 25.5q-16 -31 -45 -54q-20 -16 -46.5 -27t-69.5 -11
q-101 0 -146 70q-11 16 -21 46.5t-10 121.5v276z" />
    <glyph glyph-name="afii10089" unicode="&#x447;" horiz-adv-x="510" 
d="M40 500h88v-138q0 -68 17 -95q11 -18 32.5 -30.5t53.5 -12.5q22 0 48 9t45 33q28 35 28 98v136h88v-500h-88v212q-25 -30 -60.5 -46.5t-77.5 -16.5q-51 0 -88.5 21.5t-57.5 53.5q-10 15 -19 42.5t-9 104.5v129z" />
    <glyph glyph-name="afii10090" unicode="&#x448;" horiz-adv-x="827" 
d="M60 500h91v-288q0 -43 2 -66t9 -37q9 -19 31.5 -34t57.5 -15q26 0 52 11.5t43 38.5q20 33 20 102v288h88v-288q0 -59 4.5 -77.5t7.5 -25.5q12 -24 32.5 -36t44.5 -13q34 -1 59 15t40 39q9 14 18 40t9 95v251h88v-500h-85l-4 78q-19 -37 -50 -60q-43 -32 -97 -32
q-22 0 -49.5 8t-51.5 31.5t-36 56.5q-20 -44 -61 -69t-90 -27q-33 -1 -63.5 8.5t-51.5 28.5t-33 39q-9 16 -17 43.5t-8 110.5v284z" />
    <glyph glyph-name="afii10091" unicode="&#x449;" horiz-adv-x="870" 
d="M60 500h90v-285q0 -37 2.5 -62.5t11.5 -41.5q6 -12 19.5 -23.5t31.5 -16.5t35 -5q69 0 99 55q18 34 18 92v287h86v-285q0 -69 14 -97q10 -21 33 -36.5t56 -15.5q57 0 91 52q8 12 15.5 32t7.5 65v285h90v-365q0 -50 18 -70q10 -12 31.5 -20.5t40.5 -8.5v-236h-89v200
q-31 4 -56 27q-22 22 -25 52q-14 -32 -42 -55q-47 -37 -106 -36q-65 1 -110 43q-22 21 -31 48q-24 -45 -66 -68t-93 -23q-43 0 -80.5 17t-59.5 48q-11 16 -21.5 48t-10.5 115v284z" />
    <glyph glyph-name="afii10092" unicode="&#x44a;" horiz-adv-x="590" 
d="M0 570h111q35 0 52 -17t17 -53v-149q17 26 41.5 44.5t52.5 26t53 7.5q93 0 151 -60q29 -30 45.5 -73t16.5 -89t-16.5 -89t-45.5 -73q-60 -61 -164 -61q-118 0 -177 83q-10 14 -18.5 31t-14 36.5t-8 38.5t-3.5 34.5t-1 27v25.5v19v221h-92v70zM446 209q0 64 -30 103
q-16 21 -43.5 34.5t-59.5 13.5q-27 0 -54 -11.5t-47 -36.5q-32 -40 -32 -103t32 -103q15 -19 40.5 -33.5t60.5 -14.5q32 0 59.5 13.5t43.5 34.5q30 39 30 103z" />
    <glyph glyph-name="afii10093" unicode="&#x44b;" horiz-adv-x="760" 
d="M602 500h88v-500h-88v500zM60 560h88v-209q17 26 41.5 44.5t52.5 26t53 7.5q93 0 151 -60q29 -30 45.5 -73t16.5 -89t-16.5 -89t-45.5 -73q-60 -61 -164 -61q-118 0 -177 83q-10 14 -18.5 31t-14 36.5t-8 38.5t-3.5 34.5t-1 27v25.5v19v281zM414 209q0 64 -30 103
q-16 21 -43.5 34.5t-59.5 13.5q-27 0 -54 -11.5t-47 -36.5q-32 -40 -32 -103t32 -103q15 -19 40.5 -33.5t60.5 -14.5q32 0 59.5 13.5t43.5 34.5q30 39 30 103z" />
    <glyph glyph-name="afii10094" unicode="&#x44c;" horiz-adv-x="558" 
d="M60 560h88v-209q17 26 41.5 44.5t52.5 26t53 7.5q93 0 151 -60q29 -30 45.5 -73t16.5 -89t-16.5 -89t-45.5 -73q-60 -61 -164 -61q-118 0 -177 83q-10 14 -18.5 31t-14 36.5t-8 38.5t-3.5 34.5t-1 27v25.5v19v281zM414 209q0 64 -30 103q-16 21 -43.5 34.5t-59.5 13.5
q-27 0 -54 -11.5t-47 -36.5q-32 -40 -32 -103t32 -103q15 -19 40.5 -33.5t60.5 -14.5q32 0 59.5 13.5t43.5 34.5q30 39 30 103z" />
    <glyph glyph-name="afii10095" unicode="&#x44d;" horiz-adv-x="570" 
d="M224 286h205q0 23 -7 49.5t-19 45.5q-18 29 -49 47.5t-74 18.5q-65 0 -102 -43q-14 -16 -23 -39t-11 -44h-89q2 19 9 44t22 50.5t34 43.5q61 57 158 57q33 0 70 -8.5t67.5 -29t50.5 -46.5q25 -32 39.5 -79t14.5 -103t-14.5 -103t-39.5 -79q-65 -84 -188 -84
q-100 0 -162 58q-32 30 -47.5 67.5t-18.5 71.5h91q2 -23 11.5 -46t22.5 -38q37 -42 105 -41q45 1 76.5 19.5t48.5 48.5q24 39 24 94h-205v68z" />
    <glyph glyph-name="afii10096" unicode="&#x44e;" horiz-adv-x="800" 
d="M70 500h88v-204h108q6 79 56 139q36 43 85 62t98 19q59 0 105.5 -22.5t77.5 -59.5q27 -31 44.5 -77.5t17.5 -106.5t-17.5 -106.5t-44.5 -77.5q-31 -37 -77.5 -59.5t-105.5 -22.5q-32 0 -68.5 9t-66 29t-48.5 43q-26 32 -42 75t-15 90h-107v-230h-88v500zM351 252
q0 -78 30 -128q42 -68 125 -68q43 0 73.5 18.5t48.5 48.5q16 27 23 63t7 66q0 77 -30 127q-21 35 -54.5 51.5t-68.5 16.5q-43 0 -75 -19.5t-49 -48.5q-30 -48 -30 -127z" />
    <glyph glyph-name="afii10097" unicode="&#x44f;" horiz-adv-x="510" 
d="M440 500v-500h-86v204h-115l-113 -204h-106l132 213q-42 5 -71 32q-42 38 -41 107q0 22 7 46t22 43t31 30q9 6 21 11.5t30.5 10t37.5 6t32 1.5h25h15h179zM354 436h-101q-32 0 -52 -2t-37 -13q-34 -24 -34 -70t34 -70q8 -6 23 -10.5t66 -4.5h101v170z" />
    <glyph glyph-name="afii10071" unicode="&#x451;" horiz-adv-x="570" 
d="M286 451q-21 0 -44 -6.5t-41.5 -20.5t-29.5 -29q-13 -18 -22 -46.5t-9 -54.5h292q1 28 -8 55.5t-22 45.5q-22 29 -53 42.5t-63 13.5zM429 162h87q-13 -67 -58 -112q-64 -66 -169 -66q-114 0 -180 80q-59 71 -59 186q0 114 59 186q29 36 66.5 54.5t67.5 22t42 3.5
q49 0 88 -15.5t61.5 -35t34.5 -35.5q51 -67 51 -180v-17h-382q-1 -38 8 -69.5t20 -48.5t30 -33t44.5 -23t48.5 -7q65 0 104 39q30 29 36 71zM119 700h82v-105h-82v105zM370 700h82v-105h-82v105z" />
    <glyph glyph-name="afii10099" unicode="&#x452;" horiz-adv-x="640" 
d="M155 700h89v-121h206v-64h-206v-188q23 38 57 60q45 30 104 30q52 0 91 -19.5t58 -48.5q9 -14 17.5 -42t8.5 -107v-200q0 -66 -11.5 -101t-32.5 -58q-51 -57 -155 -57h-15v72h12q64 0 93 40q10 14 15.5 36.5t5.5 67.5v200q0 69 -13 93q-14 25 -40.5 37t-56.5 12
q-71 0 -108 -51q-15 -21 -23 -50t-8 -85v-156h-88v515h-135v64h135v121z" />
    <glyph glyph-name="afii10100" unicode="&#x453;" horiz-adv-x="519" 
d="M381 168h89q-2 -39 -17.5 -77t-48.5 -64q-58 -46 -160 -45q-77 0 -127 30q-64 39 -67 116q-1 71 57 112q30 21 134 49q80 22 99 36q29 19 29 54q0 38 -33 59q-30 18 -74 18q-53 0 -81 -20q-19 -14 -32.5 -39t-12.5 -61h-86q1 46 22 86t57 63q50 33 132 33q40 0 76.5 -9
t59.5 -25q24 -16 40.5 -43.5t17.5 -66.5q0 -56 -34 -88q-27 -27 -104 -50q-30 -9 -69.5 -20t-52.5 -16q-27 -11 -41.5 -28t-14.5 -44q0 -19 9 -36t26 -28q27 -17 78 -17q57 0 90 26q19 15 29.5 40.5t9.5 54.5zM303 700h82l-114 -140h-82z" />
    <glyph glyph-name="afii10101" unicode="&#x454;" horiz-adv-x="570" 
d="M346 286v-68h-205q0 -55 24 -94q17 -30 48.5 -48.5t76.5 -19.5q68 -1 105 41q13 15 22.5 38t11.5 46h91q-3 -34 -18.5 -71.5t-47.5 -67.5q-62 -58 -162 -58q-123 0 -188 84q-25 32 -39.5 79t-14.5 103t14.5 103t39.5 79q20 26 50.5 46.5t67.5 29t70 8.5q97 0 158 -57
q19 -18 34 -43.5t22 -50.5t9 -44h-89q-2 21 -11 44t-23 39q-37 43 -102 43q-43 0 -74 -18.5t-49 -47.5q-12 -19 -19 -45.5t-7 -49.5h205z" />
    <glyph glyph-name="afii10102" unicode="&#x455;" horiz-adv-x="520" 
d="M50 168h89q-1 -29 9.5 -54.5t29.5 -40.5q33 -26 90 -26q51 0 78 17q13 8 24 24t11 40q0 50 -56 72q-13 6 -51.5 16t-70.5 20q-77 23 -104 50q-35 33 -34 88q1 36 17.5 63.5t41.5 45.5q51 35 135 35q82 0 133 -33q39 -25 58 -65.5t20 -83.5h-86q1 29 -10.5 57t-34.5 43
q-15 10 -38 15t-43 5q-45 0 -74 -18q-33 -21 -33 -59q0 -33 27 -54q9 -7 25.5 -13.5t75.5 -22.5q57 -15 85.5 -25t48.5 -24q17 -12 31 -30.5t20 -40.5t6 -41q-1 -42 -21.5 -71t-46.5 -45q-49 -30 -131 -30q-98 0 -155 45q-25 20 -40 47.5t-20 52t-6 41.5z" />
    <glyph glyph-name="afii10103" unicode="&#x456;" horiz-adv-x="248" 
d="M80 700h88v-98h-88v98zM80 500h88v-500h-88v500z" />
    <glyph glyph-name="afii10104" unicode="&#x457;" horiz-adv-x="296" 
d="M104 500h88v-500h-88v500zM20 700h88v-98h-88v98zM188 700h88v-98h-88v98z" />
    <glyph glyph-name="afii10105" unicode="&#x458;" horiz-adv-x="248" 
d="M80 700h88v-98h-88v98zM80 500h88v-700h-88v700z" />
    <glyph glyph-name="afii10106" unicode="&#x459;" horiz-adv-x="780" 
d="M195 500h130l69 -196h155q49 0 71 -2.5t43.5 -11t39.5 -22.5q57 -44 57 -116q0 -79 -60 -120q-16 -11 -46 -21.5t-115 -10.5h-133l-141 431h-10l-141 -431h-94zM415 242l63 -180h72q61 0 86 18q13 10 23.5 29t10.5 43q0 19 -8 38.5t-26 32.5q-9 6 -25 12.5t-61 6.5h-135z
" />
    <glyph glyph-name="afii10107" unicode="&#x45a;" horiz-adv-x="846" 
d="M70 500h88v-203h244v203h88v-196h105q49 0 71 -2.5t43.5 -11t39.5 -22.5q57 -44 57 -116q0 -79 -60 -120q-16 -11 -46 -21.5t-115 -10.5h-183v229h-244v-229h-88v500zM490 62h106q61 0 86 18q13 10 23.5 29t10.5 43q0 19 -8 38.5t-26 32.5q-9 6 -25 12.5t-61 6.5h-106
v-180z" />
    <glyph glyph-name="afii10108" unicode="&#x45b;" horiz-adv-x="640" 
d="M150 700h89v-121h211v-64h-211v-188q23 38 57 60q45 30 104 30q53 0 91 -19.5t58 -48.5q31 -46 31 -149v-200h-91v200q0 67 -15 93q-14 25 -40.5 37t-56.5 12q-71 0 -108 -51q-15 -21 -23 -50t-8 -85v-156h-88v515h-130v64h130v121z" />
    <glyph glyph-name="afii10109" unicode="&#x45c;" horiz-adv-x="510" 
d="M70 500h88v-205h99l137 205h93l-162 -234l165 -266h-100l-134 230h-98v-230h-88v500zM316 700h82l-114 -140h-82z" />
    <glyph glyph-name="afii10110" unicode="&#x45e;" horiz-adv-x="520" 
d="M20 500h94l151 -432h15l136 432h94l-189 -560q-1 -2 -2 -5.5t-11.5 -33.5t-19 -49t-20.5 -32q-34 -36 -89 -36h-10v72q8 -1 20.5 2t20.5 11q4 4 11 14.5t18 46.5l22 70h-18q-17 0 -30 9.5t-23 34.5zM100 700h77q2 -35 20 -58q24 -31 69 -31t69 31q18 23 20 58h77
q-5 -67 -50 -110q-47 -45 -116 -45t-116 45q-45 43 -50 110z" />
    <glyph glyph-name="afii10193" unicode="&#x45f;" horiz-adv-x="570" 
d="M70 500h91v-422h248v422h91v-500h-172v-200h-86v200h-172v500z" />
    <glyph glyph-name="afii10050" unicode="&#x490;" horiz-adv-x="455" 
d="M75 700h318v140h82v-218h-310v-622h-90v700z" />
    <glyph glyph-name="afii10098" unicode="&#x491;" horiz-adv-x="390" 
d="M70 500h232v155h78v-225h-219v-430h-91v500z" />
    <glyph glyph-name="uni04D4" unicode="&#x4d4;" horiz-adv-x="1014" 
d="M272 700h467l27 -77h-340l79 -220h330l27 -76h-330l90 -249h345l27 -78h-440l-71 213h-296l-71 -213h-96zM328 634l-117 -349h248l-117 349h-14z" />
    <glyph glyph-name="uni04D5" unicode="&#x4d5;" horiz-adv-x="966" 
d="M522 500v-81q59 97 171 97q49 0 94.5 -21.5t76.5 -64.5q25 -35 38.5 -87t13.5 -105v-6h-390v-11q0 -27 7.5 -54.5t21.5 -49.5q41 -64 121 -65h4q31 0 59 11t45 28q13 13 23 33.5t12 43.5h92q-11 -66 -59 -118q-28 -30 -68.5 -48t-85.5 -18h-3q-35 0 -69.5 11.5t-61 36
t-42.5 51.5v-83h-80v83q-26 -47 -70.5 -70.5t-93.5 -24.5h-4q-46 0 -89 19t-74 55q-61 72 -61 188t61 188q27 32 70.5 53t93.5 21h3q49 -1 93 -24t71 -69v81h80zM445 252q0 80 -32 129q-18 28 -48.5 45.5t-71.5 17.5t-71.5 -17.5t-48.5 -45.5q-32 -49 -32 -129
q0 -81 32 -130q18 -28 48.5 -45.5t71.5 -17.5t71.5 17.5t48.5 45.5q32 49 32 130zM678 451q-79 0 -120 -57q-14 -20 -22.5 -48.5t-8.5 -52.5h302v3q0 55 -31 98q-42 57 -120 57z" />
    <glyph glyph-name="endash" unicode="&#x2013;" horiz-adv-x="660" 
d="M70 302h520v-63h-520v63z" />
    <glyph glyph-name="emdash" unicode="&#x2014;" horiz-adv-x="900" 
d="M0 302h900v-68h-900v68z" />
    <glyph glyph-name="quoteleft" unicode="&#x2018;" horiz-adv-x="249" 
d="M119 700h60q-27 -38 -42 -77q-14 -36 -14 -73h43v-100h-96v84q0 50 13 92q12 38 36 74z" />
    <glyph glyph-name="quoteright" unicode="&#x2019;" horiz-adv-x="249" 
d="M83 700h96v-84q0 -50 -13 -92q-12 -38 -36 -74h-60q27 38 42 77q14 36 14 73h-43v100z" />
    <glyph glyph-name="quotesinglbase" unicode="&#x201a;" horiz-adv-x="249" 
d="M83 100h96v-84q0 -50 -13 -92q-12 -38 -36 -74h-60q27 38 42 77q14 36 14 73h-43v100z" />
    <glyph glyph-name="quotedblleft" unicode="&#x201c;" horiz-adv-x="445" 
d="M266 700h96v-100h-43q0 -37 14 -73q15 -39 42 -77h-60q-25 42 -36 74q-2 7 -7.5 32t-5.5 60v84zM70 700h96v-100h-43q0 -37 14 -73q15 -39 42 -77h-60q-24 36 -36 74q-13 42 -13 92v84z" />
    <glyph glyph-name="quotedblright" unicode="&#x201d;" horiz-adv-x="445" 
d="M83 700h96v-84q0 -21 -3.5 -47.5t-9.5 -44.5q-11 -32 -36 -74h-60q27 38 42 77q14 36 14 73h-43v100zM279 700h96v-84q0 -50 -13 -92q-12 -38 -36 -74h-60q27 38 42 77q14 36 14 73h-43v100z" />
    <glyph glyph-name="quotedblbase" unicode="&#x201e;" horiz-adv-x="445" 
d="M83 100h96v-84q0 -21 -3.5 -47.5t-9.5 -44.5q-11 -32 -36 -74h-60q27 38 42 77q14 36 14 73h-43v100zM279 100h96v-84q0 -50 -13 -92q-12 -38 -36 -74h-60q27 38 42 77q14 36 14 73h-43v100z" />
    <glyph glyph-name="dagger" unicode="&#x2020;" horiz-adv-x="566" 
d="M240 750h86v-206h170v-78h-170v-666h-86v666h-170v78h170v206z" />
    <glyph glyph-name="daggerdbl" unicode="&#x2021;" horiz-adv-x="566" 
d="M240 750h86v-206h170v-78h-170v-339h170v-80h-170v-247h-86v247h-170v80h170v339h-170v78h170v206z" />
    <glyph glyph-name="bullet" unicode="&#x2022;" horiz-adv-x="300" 
d="M70 271q0 18 9 37t30 31t41 12t41 -12t30 -31t9 -37q0 -34 -23 -57t-57 -23t-57 23t-23 57z" />
    <glyph glyph-name="ellipsis" unicode="&#x2026;" horiz-adv-x="628" 
d="M70 100h96v-100h-96v100zM266 100h96v-100h-96v100zM462 100h96v-100h-96v100z" />
    <glyph glyph-name="perthousand" unicode="&#x2030;" horiz-adv-x="1489" 
d="M713 700h90l-478 -700h-90zM607 200q0 87 43 142q22 29 57 47.5t81 18.5q34 0 71.5 -14.5t66.5 -51.5q43 -55 43 -142q0 -88 -43 -143q-22 -29 -57 -47.5t-81 -18.5q-34 0 -71.5 14.5t-66.5 51.5q-43 55 -43 143zM683 200q0 -24 5.5 -51t16.5 -44q29 -48 83 -48t83 48
q11 17 16.5 44t5.5 51t-5.5 51t-16.5 44q-14 24 -36.5 36.5t-46.5 12.5t-46.5 -12.5t-36.5 -36.5q-11 -17 -16.5 -44t-5.5 -51zM70 501q0 87 43 142q22 29 57 47.5t81 18.5q34 0 71.5 -14.5t66.5 -51.5q43 -55 43 -142q0 -88 -43 -143q-22 -29 -57 -47.5t-81 -18.5
q-34 0 -71.5 14.5t-66.5 51.5q-43 55 -43 143zM146 501q0 -24 5.5 -51t16.5 -44q29 -48 83 -48t83 48q11 17 16.5 44t5.5 51t-5.5 51t-16.5 44q-14 24 -36.5 36.5t-46.5 12.5t-46.5 -12.5t-36.5 -36.5q-11 -17 -16.5 -44t-5.5 -51zM1057 200q0 87 43 142q22 29 57 47.5
t81 18.5q34 0 71.5 -14.5t66.5 -51.5q43 -55 43 -142q0 -88 -43 -143q-22 -29 -57 -47.5t-81 -18.5q-34 0 -71.5 14.5t-66.5 51.5q-43 55 -43 143zM1133 200q0 -24 5.5 -51t16.5 -44q29 -48 83 -48t83 48q11 17 16.5 44t5.5 51t-5.5 51t-16.5 44q-14 24 -36.5 36.5
t-46.5 12.5t-46.5 -12.5t-36.5 -36.5q-11 -17 -16.5 -44t-5.5 -51z" />
    <glyph glyph-name="guilsinglleft" unicode="&#x2039;" horiz-adv-x="340" 
d="M70 285l200 225v-108l-128 -141v-22l128 -141v-108l-200 225v70z" />
    <glyph glyph-name="guilsinglright" unicode="&#x203a;" horiz-adv-x="340" 
d="M70 510l200 -225v-70l-200 -225v108l128 141v22l-128 141v108z" />
    <glyph glyph-name="Euro" unicode="&#x20ac;" horiz-adv-x="655" 
d="M84 444h60q4 43 18.5 82t35.5 70q38 57 94 88.5t131 31.5q87 0 156 -47l-27 -67q-28 18 -61.5 28t-60.5 10q-42 1 -74 -15.5t-50.5 -37t-30.5 -41.5q-11 -19 -20.5 -45.5t-12.5 -56.5h269l-14 -56h-263q-5 -51 3 -108h234l-14 -56h-209q16 -76 70 -118.5t128 -42.5
q31 0 66.5 9t72.5 40v-84q-66 -44 -155 -44q-78 0 -134.5 31.5t-93.5 83.5q-41 60 -51 125h-81l14 56h57q-5 62 -2 108h-69z" />
    <glyph glyph-name="afii61352" unicode="&#x2116;" horiz-adv-x="1040" 
d="M692 314h308v-62h-308v62zM70 0v394q0 78 7.5 118t22 68.5t31.5 48.5q33 39 84.5 62t114.5 23q62 0 114.5 -23.5t85.5 -61.5q17 -19 30 -45t21.5 -63.5t8.5 -126.5v-394h-92v400q0 87 -10.5 119t-21.5 49q-25 37 -62 53t-74 16q-26 0 -54.5 -9t-49 -26t-31.5 -34t-22 -49
t-11 -120v-399h-92zM692 543q0 29 9 60.5t29 55.5q43 52 116 52t116 -52q20 -24 29 -55.5t9 -60.5t-9.5 -60.5t-28.5 -54.5q-43 -52 -116 -52t-116 52q-19 23 -28.5 54.5t-9.5 60.5zM761 544q0 -16 4 -39.5t14 -39.5t28.5 -26.5t38.5 -10.5t38.5 10.5t28.5 26.5q6 9 12 30.5
t6 48.5q0 23 -4.5 44.5t-13.5 35.5q-3 5 -14.5 16.5t-26.5 16t-26 4.5q-23 0 -41 -11.5t-26 -25.5q-7 -10 -12.5 -30t-5.5 -50z" />
    <glyph glyph-name="uni2117" unicode="&#x2117;" horiz-adv-x="983" 
d="M354 595h141q93 0 138 -32q57 -41 57 -121t-57 -121q-21 -16 -52 -24.5t-86 -8.5h-78v-183h-63v490zM417 544v-205h83h8q33 0 50.5 5.5t31.5 16.5q16 12 26 30.5t10 50.5q0 56 -36 82q-9 7 -26.5 13.5t-63.5 6.5h-83zM70 349q0 108 52.5 204.5t151.5 156.5t218 60
q63 0 133.5 -22t134 -74t98 -115.5t45 -116t10.5 -93.5q0 -63 -22 -133.5t-74 -134t-115.5 -98t-116 -45t-93.5 -10.5q-108 0 -205 52.5t-157 151t-60 217.5zM127 349q0 -73 28.5 -140.5t78.5 -117.5t117.5 -78.5t140.5 -28.5t140.5 28.5t117.5 78.5t78.5 117.5t28.5 140.5
t-28.5 140.5t-78.5 117.5t-117.5 78.5t-140.5 28.5t-140.5 -28.5t-117.5 -78.5t-78.5 -117.5t-28.5 -140.5z" />
    <glyph glyph-name="trademark" unicode="&#x2122;" horiz-adv-x="905" 
d="M40 700h280v-55h-106v-295h-70v295h-104v55zM375 350v197q0 35 3.5 61.5t20.5 50.5q13 19 38.5 33.5t59.5 14.5q36 0 65.5 -17.5t43.5 -47.5q14 30 42.5 47.5t64.5 17.5q26 0 52.5 -11t45.5 -36q9 -12 17 -33.5t8 -79.5v-197h-71v208q0 44 -10 62q-6 11 -19 19.5t-33 8.5
q-34 0 -52 -27q-10 -17 -10 -63v-208h-71v209q0 21 -1.5 35.5t-9.5 26.5q-17 27 -51 27t-51 -27q-5 -7 -8 -19t-3 -43v-209h-71z" />
    <glyph glyph-name="partialdiff" unicode="&#x2202;" horiz-adv-x="610" 
d="M174 626v80h6q65 0 128 -25t108 -66q41 -37 69 -88.5t41 -106.5q11 -44 13.5 -104t-4.5 -110q-13 -98 -73 -159q-62 -63 -159 -63q-95 1 -159 59q-32 30 -53 74t-21 99q0 49 17.5 92.5t46.5 72.5t70 46t84 17q44 0 87 -21t73 -63q-4 54 -21 96q-31 79 -89 121
q-31 22 -75 35.5t-89 13.5zM164 214q0 -66 34 -109q39 -50 105 -50t105 50q15 19 25 47t10 62q0 67 -35 109q-16 19 -42.5 33t-62.5 14q-27 0 -55.5 -11t-49.5 -36q-34 -41 -34 -109z" />
    <glyph glyph-name="product" unicode="&#x220f;" horiz-adv-x="680" 
d="M75 700h530v-700h-90v624h-350v-624h-90v700z" />
    <glyph glyph-name="summation" unicode="&#x2211;" horiz-adv-x="570" 
d="M50 700h462v-77h-356l185 -252l-185 -293h364v-78h-470v78l185 293l-185 252v77z" />
    <glyph glyph-name="minus" unicode="&#x2212;" horiz-adv-x="660" 
d="M70 338h520v-68h-520v68z" />
    <glyph glyph-name="uni2215" unicode="&#x2215;" horiz-adv-x="452" 
d="M384 700h68l-384 -700h-68z" />
    <glyph glyph-name="uni2219" unicode="&#x2219;" horiz-adv-x="236" 
d="M70 316h96v-100h-96v100z" />
    <glyph glyph-name="radical" unicode="&#x221a;" horiz-adv-x="640" 
d="M70 480h128l190 -422h24v692h158v-58h-94v-692h-143l-191 422h-72v58z" />
    <glyph glyph-name="infinity" unicode="&#x221e;" horiz-adv-x="746" 
d="M373 252l-37 -41q-53 -59 -121 -59q-60 0 -102.5 43.5t-42.5 109.5q0 27 10 55t28.5 49.5t46 34t60.5 12.5q74 0 121 -55l37 -43l37 40q24 27 52.5 42.5t68.5 15.5q41 0 75.5 -20t52 -56.5t17.5 -74.5q0 -34 -14.5 -70t-51 -60t-79.5 -23q-69 2 -121 59zM422 305l29 -33
q14 -16 34 -28t40 -12q18 0 35.5 11t24.5 28t7 34q-1 32 -20.5 52.5t-46.5 19.5q-12 0 -27 -6t-27.5 -16t-19.5 -18zM324 305l-29 32q-14 16 -34.5 28t-39.5 12q-25 0 -45.5 -19.5t-21.5 -52.5q-1 -31 19 -51.5t48 -21.5q18 -1 35.5 8t38.5 32z" />
    <glyph glyph-name="integral" unicode="&#x222b;" horiz-adv-x="319" 
d="M163 474l77 -434q10 -54 11 -104q0 -27 -4.5 -50t-20.5 -45q-13 -17 -34 -29.5t-51 -11.5q-19 1 -36.5 9.5t-25.5 25t-8 32.5q0 27 16.5 41t36.5 14q31 0 40 -28q4 7 6.5 16.5t2.5 36.5q0 18 -12 93l-78 434q-12 71 -13 109q-2 56 24 90q32 42 87 41q20 0 37 -8t25 -24
t8 -31q0 -26 -17 -42.5t-39 -16.5q-12 0 -24 6t-19 20q-5 -15 -5 -35q1 -29 16 -109z" />
    <glyph glyph-name="approxequal" unicode="&#x2248;" horiz-adv-x="660" 
d="M70 431q67 60 128 60q50 0 132 -46q60 -34 80 -43.5t36.5 -12t22.5 -2.5q57 0 121 72v-68q-67 -60 -128 -60q-50 0 -132 46q-60 34 -80 43.5t-36.5 12t-22.5 2.5q-57 0 -121 -72v68zM70 201q67 60 128 60q50 0 132 -46q60 -34 80 -43.5t36.5 -12t22.5 -2.5q57 0 121 72
v-68q-67 -60 -128 -60q-50 0 -132 46q-60 34 -80 43.5t-36.5 12t-22.5 2.5q-57 0 -121 -72v68z" />
    <glyph glyph-name="notequal" unicode="&#x2260;" horiz-adv-x="660" 
d="M70 443h304l65 117h74l-65 -117h142v-67h-180l-85 -152h265v-67h-303l-65 -117h-74l65 117h-143v67h181l85 152h-266v67z" />
    <glyph glyph-name="lessequal" unicode="&#x2264;" 
d="M70 488l420 172v-70l-356 -145v-22l356 -153v-70l-420 180v108zM70 250l420 -210v-70l-420 210v70z" />
    <glyph glyph-name="greaterequal" unicode="&#x2265;" 
d="M70 660l420 -172v-108l-420 -180v70l356 153v22l-356 145v70zM70 40l420 210v-70l-420 -210v70z" />
    <glyph glyph-name="dotmath" unicode="&#x22c5;" horiz-adv-x="236" 
d="M70 316h96v-100h-96v100z" />
    <glyph glyph-name="uni2300" unicode="&#x2300;" horiz-adv-x="720" 
d="M580 670h68l-96 -134q31 -27 54 -64t33.5 -77.5t10.5 -74.5q0 -36 -13 -83t-48.5 -93.5t-83.5 -74.5q-68 -39 -143 -39q-73 0 -144 38l-70 -98h-68l92 129q-27 24 -52 59.5t-37.5 79t-12.5 82.5q0 36 13 83t48.5 93.5t83.5 74.5q30 18 71 28.5t79 10.5q84 0 143 -41z
M208 149l265 371q-56 30 -114 30q-31 0 -62 -9t-52 -22q-52 -30 -83.5 -84t-31.5 -115q0 -53 22 -97t56 -74zM517 487l-264 -370q55 -27 108 -27q30 0 60.5 9t53.5 22q52 30 83.5 84t31.5 115q0 53 -21.5 96t-51.5 71z" />
    <glyph glyph-name="uni25AE" unicode="&#x25ae;" horiz-adv-x="224" 
d="M80 700h64v-700h-64v700z" />
    <glyph glyph-name="lozenge" unicode="&#x25ca;" horiz-adv-x="600" 
d="M245 700h110l175 -350l-173 -350h-114l-173 350zM293 635l-137 -285l137 -283h14l137 283l-137 285h-14z" />
    <glyph glyph-name="openbullet" unicode="&#x25e6;" horiz-adv-x="475" 
d="M125 544q0 -21 11 -47.5t39.5 -45.5t61.5 -19q21 0 47.5 11t45.5 39.5t19 61.5q0 21 -11 47.5t-39.5 45.5t-61.5 19q-21 0 -47.5 -11t-45.5 -39.5t-19 -61.5zM70 544q0 69 49 118t118 49q25 0 53 -8.5t53.5 -29.5t43.5 -54t18 -75t-22.5 -82.5t-63 -63t-82.5 -22.5
q-25 0 -53 9t-56.5 32.5t-43 58.5t-14.5 68z" />
    <glyph glyph-name="uni2606" unicode="&#x2606;" horiz-adv-x="623" 
d="M151 99h326v7q0 28 -10 58.5t-25 50.5q-46 60 -128 60q-34 0 -69 -13.5t-59 -46.5q-14 -19 -24.5 -50.5t-10.5 -54.5v-11zM70 325q-7 62 23.5 104.5t91 61.5t129.5 19q50 0 96.5 -10t82.5 -31.5t54 -58t11 -85.5l-103 44q2 43 -38 65q-18 10 -47.5 15t-55.5 5
q-25 0 -55 -5t-48 -15q-42 -23 -38 -65zM79 39v29q0 111 50 178q29 39 77.5 63.5t107.5 25.5q29 0 65.5 -8t71.5 -30t57 -51q23 -30 35 -71.5t12 -110.5v-25h-476z" />
    <glyph glyph-name="uniF6C9" unicode="&#xf6c9;" horiz-adv-x="455" 
d="M301 840h86l-97 -110h-86z" />
    <glyph glyph-name="uniF6CB" unicode="&#xf6cb;" horiz-adv-x="620" 
d="M143 820h94v-70h-94v70zM395 820h94v-70h-94v70z" />
    <glyph glyph-name="uniF6D1" unicode="&#xf6d1;" horiz-adv-x="670" 
d="M155 850h80q4 -25 27 -46q28 -25 73 -25t73 25q23 21 27 46h80q-16 -53 -54 -88q-50 -45 -126 -45t-126 45q-38 35 -54 88z" />
    <glyph glyph-name="uniF6D4" unicode="&#xf6d4;" horiz-adv-x="550" 
d="M109 700h77q2 -35 20 -58q24 -31 69 -31t69 31q18 23 20 58h77q-5 -67 -50 -110q-47 -45 -116 -45t-116 45q-45 43 -50 110z" />
    <glyph glyph-name="u.aalt" horiz-adv-x="540" 
d="M60 500h90v-277q0 -46 5 -70.5t16 -41.5q15 -23 41 -37.5t58 -14.5t58 14.5t41 37.5q7 12 14 34t7 78v277h90v-276q0 -65 -11.5 -103t-34.5 -66q-31 -37 -74 -54t-90 -17q-104 0 -163 71q-24 29 -35.5 66t-11.5 103v276z" />
    <glyph glyph-name="afii10145.aalt" horiz-adv-x="660" 
d="M65 700h93v-396q0 -47 1.5 -72t9.5 -48t20 -42q48 -75 141 -75q94 0 141 75q10 17 20.5 48.5t10.5 112.5v397h93v-387q0 -99 -17 -153.5t-48 -90.5q-17 -20 -43.5 -38.5t-57 -28.5t-56.5 -13v-189h-86v189q-47 5 -88.5 26.5t-68.5 53.5q-30 35 -47.5 90.5t-17.5 153.5
v387z" />
    <glyph glyph-name="afii10193.aalt" horiz-adv-x="550" 
d="M60 500h91v-280q0 -77 24 -112q32 -47 100 -47t100 45q9 12 16.5 34t7.5 80v280h91v-276q0 -110 -47 -169q-21 -25 -54 -43.5t-71 -24.5v-187h-86v188q-38 5 -70.5 24t-53.5 45q-48 60 -48 167v276z" />
    <glyph glyph-name="afii10098.aalt" horiz-adv-x="330" 
d="M234 700h76v-258h-50q-66 0 -91 -36q-9 -12 -13.5 -33.5t-4.5 -70.5v-302h-91v302q0 79 12.5 108.5t26.5 45.5q21 24 57.5 39.5t77.5 14.5v190z" />
    <glyph glyph-name="afii10026.aalt" horiz-adv-x="650" 
d="M65 700h92v-396q0 -73 8 -108.5t25 -60.5q11 -17 31.5 -34t49 -26t54.5 -9q37 0 74 16t62 53q11 17 21.5 49t10.5 119v397h92v-394q0 -98 -11.5 -139t-24.5 -62t-24 -34q-33 -38 -85.5 -61.5t-114.5 -23.5q-63 0 -114.5 23t-84.5 62q-17 20 -31.5 48.5t-22 68.5t-7.5 118
v394z" />
    <glyph glyph-name="afii10027.aalt" horiz-adv-x="670" 
d="M155 850h80q4 -25 27 -46q28 -25 73 -25t73 25q23 21 27 46h80q-16 -53 -54 -88q-50 -45 -126 -45t-126 45q-38 35 -54 88zM75 700h92v-396q0 -73 8 -108.5t25 -60.5q11 -17 31.5 -34t49 -26t54.5 -9q37 0 74 16t62 53q11 17 21.5 49t10.5 119v397h92v-394
q0 -98 -11.5 -139t-24.5 -62t-24 -34q-33 -38 -85.5 -61.5t-114.5 -23.5q-63 0 -114.5 23t-84.5 62q-17 20 -31.5 48.5t-22 68.5t-7.5 118v394z" />
    <glyph glyph-name="r.aalt" horiz-adv-x="315" 
d="M60 0v305q0 57 2.5 82.5t11.5 47.5t23 38q17 20 46.5 32t70.5 11q44 -1 86 -16v-67q-17 6 -40.5 11t-37.5 5q-51 2 -66 -43q-2 -6 -4 -19t-2 -41v-31v-315h-90z" />
    <glyph glyph-name="afii10038.aalt" horiz-adv-x="930" 
d="M372 630q-50 -3 -90 -24t-68 -53t-46.5 -81.5t-18.5 -120.5q0 -131 68 -205q34 -37 88 -60.5t115 -24.5v572q0 42 23 61q22 18 63 18q39 1 84.5 -7.5t93 -30t87.5 -59.5q44 -42 68 -94t30 -96t6 -75q0 -166 -106 -264q-51 -47 -123.5 -72.5t-185.5 -25.5q-62 0 -113 9
t-97.5 30t-87.5 59q-107 98 -107 264q0 164 103 261q50 46 106.5 66.5t107.5 22.5v-70zM504 61q34 0 69 7.5t75 28t66 49.5q29 32 48 83.5t19 121.5q0 53 -14.5 108t-51.5 98q-42 48 -99.5 67t-111.5 18v-581z" />
    <glyph glyph-name="afii10040.aalt" horiz-adv-x="662" 
d="M65 700h92v-396q0 -73 8 -108.5t25 -60.5q11 -17 31.5 -34t49 -26t54.5 -9q37 0 74 16t62 53q11 17 21.5 49t10.5 119v397h92v-394q0 -70 -7.5 -120t-32.5 -84l62 -58l-56 -58l-59 54q-73 -54 -167 -54q-63 0 -114.5 23t-84.5 62q-17 20 -31.5 48.5t-22 68.5t-7.5 118
v394z" />
    <glyph glyph-name="afii10042.aalt" horiz-adv-x="990" 
d="M65 700h92v-411q0 -57 4.5 -92.5t17.5 -59.5q19 -36 51 -52t67 -16q24 0 50.5 8t47 25.5t31.5 37.5q9 16 17 43.5t8 105.5v411h88v-411q0 -65 6 -95.5t19 -53.5q11 -20 31.5 -37.5t47 -25.5t50.5 -8q35 0 67 16t51 52q10 18 16 49.5t6 102.5v411h92v-403
q0 -73 -3.5 -106.5t-15 -64.5t-30.5 -55q-29 -38 -77 -60.5t-104 -22.5q-47 0 -90 19t-70 49.5t-40 59.5q-13 -29 -40 -59.5t-70 -49.5t-90 -19q-56 0 -104 22.5t-77 60.5q-19 24 -29.5 52t-15 60t-4.5 114v403z" />
    <glyph glyph-name="afii10043.aalt" horiz-adv-x="1007" 
d="M65 700h92v-411q0 -57 4.5 -92.5t17.5 -59.5q19 -36 51 -52t67 -16q24 0 50.5 8t47 25.5t31.5 37.5q9 16 17 43.5t8 105.5v411h88v-411q0 -65 6 -95.5t19 -53.5q11 -20 31.5 -37.5t47 -25.5t50.5 -8q80 0 118 68q8 16 15 43.5t7 108.5v411h92v-403q0 -65 -4.5 -109
t-20.5 -77l67 -55l-54 -68l-65 55q-63 -55 -153 -55q-47 0 -90 19t-70 49.5t-40 59.5q-13 -29 -40 -59.5t-70 -49.5t-90 -19q-56 0 -104 22.5t-77 60.5q-19 24 -29.5 52t-15 60t-4.5 114v403z" />
    <glyph glyph-name="afii10069.aalt" horiz-adv-x="600" 
d="M530 500v-700h-88v283q-26 -46 -71 -71t-98 -26q-28 0 -60 8t-58 26.5t-44 39.5q-61 73 -61 190t61 190q18 21 44 39.5t58 26.5t60 8q38 -1 73.5 -14t59 -36t36.5 -45l3 81h85zM445 252q0 84 -30 130q-20 30 -52 48t-70 18t-69 -17.5t-50 -45.5q-32 -49 -32 -133
q0 -85 32 -134q19 -28 50 -45.5t69 -17.5t70 18t52 48q30 47 30 131z" />
    <glyph glyph-name="afii10074.aalt" horiz-adv-x="540" 
d="M60 500h90v-277q0 -46 5 -70.5t16 -41.5q15 -23 41 -37.5t58 -14.5t58 14.5t41 37.5q7 12 14 34t7 78v277h90v-276q0 -65 -11.5 -103t-34.5 -66q-31 -37 -74 -54t-90 -17q-104 0 -163 71q-24 29 -35.5 66t-11.5 103v276z" />
    <glyph glyph-name="afii10075.aalt" horiz-adv-x="550" 
d="M109 700h77q2 -35 20 -58q24 -31 69 -31t69 31q18 23 20 58h77q-5 -67 -50 -110q-47 -45 -116 -45t-116 45q-45 43 -50 110zM65 500h90v-277q0 -46 5 -70.5t16 -41.5q15 -23 41 -37.5t58 -14.5t58 14.5t41 37.5q7 12 14 34t7 78v277h90v-276q0 -65 -11.5 -103t-34.5 -66
q-31 -37 -74 -54t-90 -17q-104 0 -163 71q-24 29 -35.5 66t-11.5 103v276z" />
    <glyph glyph-name="afii10078.aalt" horiz-adv-x="750" 
d="M130 500h124l121 -428l121 428h124l110 -500h-88l-88 437h-12l-124 -437h-86l-124 433h-12l-88 -433h-88z" />
    <glyph glyph-name="afii10081.aalt" horiz-adv-x="540" 
d="M60 0v276q0 66 11.5 103t35.5 66q59 71 163 71q47 0 90 -17t74 -54q15 -19 30.5 -54t15.5 -115v-276h-90v280q0 46 -5 70.5t-16 41.5q-15 23 -41 37.5t-58 14.5t-58 -14.5t-41 -37.5q-7 -12 -14 -34t-7 -78v-280h-90z" />
    <glyph glyph-name="afii10086.aalt" horiz-adv-x="760" 
d="M336 -200v193q-46 -1 -96 12t-87 38q-47 33 -75 84.5t-28 122.5q0 55 18 98.5t42 68t43 37.5q63 42 142 43v-65q-22 -1 -45.5 -9t-40.5 -19q-69 -48 -69 -154q0 -107 69 -155q27 -19 62.5 -27t64.5 -7v365q0 20 4.5 38t21.5 30q18 13 62 13q111 0 183 -50
q44 -31 73.5 -83t29.5 -124q0 -71 -28.5 -123.5t-74.5 -83.5q-37 -25 -87.5 -38t-97.5 -12v-193h-86zM422 442v-381q30 -1 66.5 7.5t62.5 26.5q69 48 69 155q0 59 -19.5 97t-49.5 60q-26 19 -62.5 27.5t-66.5 7.5z" />
    <glyph glyph-name="afii10090.aalt" horiz-adv-x="820" 
d="M60 500h90v-285q0 -44 4 -65.5t14 -38.5q13 -23 37.5 -37t52.5 -14q29 0 52.5 14t36.5 37q20 36 20 104v285h86v-285q0 -69 20 -104q31 -51 89 -51q31 0 54 14.5t36 36.5q6 11 12 32t6 72v285h90v-284q0 -50 -6 -86.5t-27 -67.5q-20 -30 -58.5 -52.5t-93.5 -23.5
q-56 0 -100 29t-65 85q-21 -56 -65 -85t-100 -29q-55 1 -93.5 23.5t-58.5 52.5q-16 24 -24.5 57t-8.5 97v284z" />
    <glyph glyph-name="afii10092.aalt" horiz-adv-x="589" 
d="M447 244q0 82 -31 127q-16 24 -45 41.5t-69 17.5q-71 0 -113 -59q-32 -46 -32 -127t32 -127q18 -27 47.5 -44t65.5 -17t66 17t48 44q31 45 31 127zM-20 700h110q40 0 55 -17q12 -14 12 -53v-219q24 43 66 66t91 23q28 0 60 -7.5t59 -26t46 -40.5q31 -37 45.5 -85
t14.5 -98q0 -55 -16 -103t-44 -80q-18 -21 -46 -40t-63.5 -27.5t-67.5 -8.5q-49 0 -87.5 15t-61.5 35t-35 37q-23 32 -36 77.5t-13 130.5v351h-89v70z" />
    <glyph glyph-name="afii10093.aalt" horiz-adv-x="780" 
d="M622 500h88v-500h-88v500zM438 244q0 82 -31 127q-16 24 -45 41.5t-69 17.5q-71 0 -113 -59q-32 -46 -32 -127t32 -127q20 -30 49.5 -45t61.5 -16q37 -1 67.5 16.5t48.5 44.5q31 45 31 127zM60 650h88v-239q24 42 65.5 65.5t91.5 23.5q28 0 60 -7.5t59 -26t46 -40.5
q31 -37 45.5 -85t14.5 -98q0 -55 -16 -103t-44 -80q-35 -40 -82 -58t-96 -18q-48 0 -87 15t-61.5 35t-34.5 37q-23 32 -36 77.5t-13 130.5v371z" />
    <glyph glyph-name="afii10094.aalt" horiz-adv-x="580" 
d="M438 244q0 82 -31 127q-16 24 -45 41.5t-69 17.5q-71 0 -113 -59q-32 -46 -32 -127t32 -127q20 -30 49.5 -45t61.5 -16q37 -1 67.5 16.5t48.5 44.5q31 45 31 127zM60 650h88v-239q24 42 65.5 65.5t91.5 23.5q28 0 60 -7.5t59 -26t46 -40.5q31 -37 45.5 -85t14.5 -98
q0 -55 -16 -103t-44 -80q-35 -40 -82 -58t-96 -18q-48 0 -87 15t-61.5 35t-34.5 37q-23 32 -36 77.5t-13 130.5v371z" />
    <glyph glyph-name="n.aalt" horiz-adv-x="540" 
d="M60 0v276q0 66 11.5 103t35.5 66q59 71 163 71q47 0 90 -17t74 -54q15 -19 30.5 -54t15.5 -115v-276h-90v280q0 46 -5 70.5t-16 41.5q-15 23 -41 37.5t-58 14.5t-58 -14.5t-41 -37.5q-7 -12 -14 -34t-7 -78v-280h-90z" />
    <glyph glyph-name="m.aalt" horiz-adv-x="820" 
d="M60 0v284q0 50 6 86.5t27 67.5q20 30 58.5 52.5t93.5 23.5q56 0 100 -29t65 -85q21 56 65 85t100 29q55 -1 93.5 -23.5t58.5 -52.5q16 -24 24.5 -57t8.5 -97v-284h-90v288q0 34 -3.5 59t-14.5 45q-13 22 -36 36.5t-54 14.5q-58 0 -89 -51q-20 -35 -20 -104v-288h-86v288
q0 68 -20 104q-13 23 -36.5 37t-52.5 14q-28 0 -52.5 -14t-37.5 -37q-7 -11 -12.5 -31t-5.5 -73v-288h-90z" />
    <glyph glyph-name="afii10033.aalt" horiz-adv-x="650" 
d="M65 0v394q0 78 7.5 118t22 68.5t31.5 48.5q33 39 84.5 62t114.5 23q62 0 114.5 -23.5t85.5 -61.5q17 -19 30 -45t21.5 -63.5t8.5 -126.5v-394h-92v400q0 87 -10.5 119t-21.5 49q-25 37 -62 53t-74 16q-26 0 -54.5 -9t-49 -26t-31.5 -34t-22 -49t-11 -120v-399h-92z" />
  </font>
</defs>
</svg>
